<svg xmlns="http://www.w3.org/2000/svg" style="height: 0; width: 0; position: absolute;">
  <symbol id="cartIcon" viewBox="0 0 24 24">
    <path d="M0 0h24v24H0V0z" fill="none" />
    <path
      d="M15.55 13c.75 0 1.41-.41 1.75-1.03l3.58-6.49c.37-.66-.11-1.48-.87-1.48H5.21l-.94-2H1v2h2l3.6
        7.59-1.35 2.44C4.52 15.37 5.48 17 7 17h12v-2H7l1.1-2h7.45zM6.16 6h12.15l-2.76 5H8.53L6.16 6zM7
        18c-1.1 0-1.99.9-1.99 2S5.9 22 7 22s2-.9 2-2-.9-2-2-2zm10 0c-1.1 0-1.99.9-1.99 2s.89 2 1.99 2
        2-.9 2-2-.9-2-2-2z
      "
      fill="currentColor"
    />
  </symbol>

  <symbol
    height="24"
    id="buyIcon"
    viewBox="0 0 24 24"
    width="24"
  >
    <path d="M0 0h24v24H0V0z" fill="none" />
    <path
      d="M22 9h-4.79l-4.38-6.56c-.19-.28-.51-.42-.83-.42s-.64.14-.83.43L6.79 9H2c-.55 0-1 .45-1 1
        0 .09.01.18.04.27l2.54 9.27c.23.84 1 1.46 1.92 1.46h13c.92 0 1.69-.62 1.93-1.46l2.54-9.27L23
        10c0-.55-.45-1-1-1zM12 4.8L14.8 9H9.2L12 4.8zM18.5 19l-12.99.01L3.31 11H20.7l-2.2 8zM12 13c-1.1
        0-2 .9-2 2s.9 2 2 2 2-.9 2-2-.9-2-2-2z
      "
      fill="currentColor"
    />
  </symbol>

  <symbol id="chatIcon" viewBox="0 0 512 512">
    <path
      d="M256 32C114.6 32 0 125.1 0 240c0 47.6 19.9 91.2 52.9 126.3C38 405.7 7 439.1 6.5 439.5c-6.6
        7-8.4 17.2-4.6 26S14.4 480 24 480c61.5 0 110-25.7 139.1-46.3C192 442.8 223.2 448 256 448c141.4
        0 256-93.1 256-208S397.4 32 256 32zm0 368c-26.7 0-53.1-4.1-78.4-12.1l-22.7-7.2-19.5 13.8c-14.3
        10.1-33.9 21.4-57.5 29 7.3-12.1 14.4-25.7 19.9-40.2l10.6-28.1-20.6-21.8C69.7 314.1 48 282.2 48
        240c0-88.2 93.3-160 208-160s208 71.8 208 160-93.3 160-208 160z
      "
      fill="currentColor"
    />
  </symbol>

  <symbol id="arrowIcon" viewBox="0 0 448 512">
    <path
      d="M34.9 289.5l-22.2-22.2c-9.4-9.4-9.4-24.6 0-33.9L207 39c9.4-9.4 24.6-9.4 33.9 0l194.3 194.3c9.4
        9.4 9.4 24.6 0 33.9L413 289.4c-9.5 9.5-25 9.3-34.3-.4L264 168.6V456c0 13.3-10.7 24-24 24h-32c-13.3
        0-24-10.7-24-24V168.6L69.2 289.1c-9.3 9.8-24.8 10-34.3.4z
      "
      fill="currentColor"
    />
  </symbol>

  <symbol id="plusIcon" viewBox="0 0 448 512">
    <path
      fill="currentColor"
      d="M416 208H272V64c0-17.67-14.33-32-32-32h-32c-17.67 0-32 14.33-32 32v144H32c-17.67
        0-32 14.33-32 32v32c0 17.67 14.33 32 32 32h144v144c0 17.67 14.33 32 32 32h32c17.67
        0 32-14.33 32-32V304h144c17.67 0 32-14.33 32-32v-32c0-17.67-14.33-32-32-32z
      "
    />
  </symbol>

  <symbol id="minusIcon" viewBox="0 0 448 512">
    <path
      fill="currentColor"
      d="M416 208H32c-17.67 0-32 14.33-32 32v32c0 17.67 14.33 32 32 32h384c17.67 0
        32-14.33 32-32v-32c0-17.67-14.33-32-32-32z
      "
    />
  </symbol>

  <symbol id="exclamationIcon" viewBox="0 0 512 512">
    <path
      fill="currentColor"
      d="M256 8C119.043 8 8 119.083 8 256c0 136.997 111.043 248 248 248s248-111.003 248-248C504
        119.083 392.957 8 256 8zm0 448c-110.532 0-200-89.431-200-200 0-110.495 89.472-200 200-200
        110.491 0 200 89.471 200 200 0 110.53-89.431 200-200 200zm42-104c0 23.159-18.841 42-42
        42s-42-18.841-42-42 18.841-42 42-42 42 18.841 42 42zm-81.37-211.401l6.8 136c.319 6.387
        5.591 11.401 11.985 11.401h41.17c6.394 0 11.666-5.014
        11.985-11.401l6.8-136c.343-6.854-5.122-12.599-11.985-12.599h-54.77c-6.863 0-12.328
        5.745-11.985 12.599z
      "
    />
  </symbol>

  <symbol id="profileIcon" viewBox="0 0 448 512">
    <path
      fill="currentColor"
      d="M352,384H317.61523c-19.65039,17.98828-39.01953,33.541-55.49023,45.84766a63.66049,63.66049,0,0,1-76.25.00195C169.4043,
        417.543,150.03516,401.98828,130.38477,384H96A95.99975,95.99975,0,0,0,0,480a32.00033,32.00033,0,0,0,32,32H416a32.00033,
        32.00033,0,0,0,32-32A95.99975,95.99975,0,0,0,352,384ZM205.0293,404.21484a31.66414,31.66414,0,0,0,37.9414,0C288.459,
        370.22266,400,277.51172,400,185.68359,400,70.31836,321.18164,0,224,0,126.791,0,48,70.31836,48,185.68359,48,277.51172,
        159.541,370.22266,205.0293,404.21484ZM240,252a60.00047,60.00047,0,0,1,60-60h24a12.0006,12.0006,0,0,1,12,12v8a60.00047,
        60.00047,0,0,1-60,60H252a12.0006,12.0006,0,0,1-12-12ZM112,212v-8a12.0006,12.0006,0,0,1,12-12h24a60.00047,60.00047,0,0,1,60,
        60v8a12.0006,12.0006,0,0,1-12,12H172A60.00047,60.00047,0,0,1,112,212Z
      "
    />
  </symbol>

  <symbol id="timeIcon" viewBox="0 0 512 512">
    <path
      d="M256 0a256 256 0 1 1 0 512A256 256 0 1 1 256 0zM232 120V256c0 8 4 15.5 10.7
        20l96 64c11 7.4 25.9 4.4 33.3-6.7s4.4-25.9-6.7-33.3L280 243.2V120c0-13.3-10.7-24-24-24s-24
        10.7-24 24z
      "
      fill="currentColor"
    />
  </symbol>

  <symbol id="emailIcon" viewBox="0 0 512 512">
    <path
      d="M256 8C118.941 8 8 118.919 8 256c0 137.059 110.919 248 248 248 48.154 0 95.342-14.14
        135.408-40.223 12.005-7.815 14.625-24.288 5.552-35.372l-10.177-12.433c-7.671-9.371-21.179-11.667-31.373-5.129C325.92
        429.757 291.314 440 256 440c-101.458 0-184-82.542-184-184S154.542 72 256 72c100.139 0 184 57.619 184 160 0
        38.786-21.093 79.742-58.17 83.693-17.349-.454-16.91-12.857-13.476-30.024l23.433-121.11C394.653 149.75
        383.308 136 368.225 136h-44.981a13.518 13.518 0 0 0-13.432 11.993l-.01.092c-14.697-17.901-40.448-21.775-59.971-21.775-74.58 0-137.831
        62.234-137.831 151.46 0 65.303 36.785 105.87 96 105.87 26.984 0 57.369-15.637 74.991-38.333 9.522 34.104 40.613 34.103 70.71
        34.103C462.609 379.41 504 307.798 504 232 504 95.653 394.023 8 256 8zm-21.68 304.43c-22.249 0-36.07-15.623-36.07-40.771
        0-44.993 30.779-72.729 58.63-72.729 22.292 0 35.601 15.241 35.601 40.77 0 45.061-33.875 72.73-58.161 72.73z
      "
      fill="currentColor"
    />
  </symbol>

  <symbol id="phoneIcon" viewBox="0 0 320 512">
    <path
      d="M16 64C16 28.7 44.7 0 80 0H304c35.3 0 64 28.7 64 64V448c0 35.3-28.7 64-64 64H80c-35.3
        0-64-28.7-64-64V64zM144 448c0 8.8 7.2 16 16 16h64c8.8 0 16-7.2 16-16s-7.2-16-16-16H160c-8.8 0-16
        7.2-16 16zM304 64H80V384H304V64z
      "
      fill="currentColor"
    />
  </symbol>

  <symbol id="checkmarkIcon" viewBox="0 0 24 24">
    <style>
      @keyframes checkDraw {
        0% { stroke-dashoffset: 40; }
        100% { stroke-dashoffset: 0; }
      }
    </style>

    <polyline
      fill="none"
      points="2,13 10,21 22,2"
      stroke="currentColor"
      stroke-width="5"
      stroke-linecap="round"
      stroke-linejoin="round"
      stroke-miterlimit="10"
      stroke-dasharray="40"
      stroke-dashoffset="40"
      style="
        animation-duration: 0.25s;
        animation-fill-mode: forwards;
        animation-name: checkDraw;
        animation-timing-function: ease-in-out;
      "
    />
  </symbol>

  <symbol id="crossIcon" viewBox="0 0 512 512">
    <path
      d="M256 8C119 8 8 119 8 256s111 248 248 248 248-111 248-248S393 8 256 8zm0 448c-110.5
        0-200-89.5-200-200S145.5 56 256 56s200 89.5 200 200-89.5 200-200 200zm101.8-262.2L295.6
        256l62.2 62.2c4.7 4.7 4.7 12.3 0 17l-22.6 22.6c-4.7 4.7-12.3 4.7-17 0L256 295.6l-62.2
        62.2c-4.7 4.7-12.3 4.7-17 0l-22.6-22.6c-4.7-4.7-4.7-12.3 0-17l62.2-62.2-62.2-62.2c-4.7-4.7-4.7-12.3
        0-17l22.6-22.6c4.7-4.7 12.3-4.7 17 0l62.2 62.2 62.2-62.2c4.7-4.7 12.3-4.7 17 0l22.6 22.6c4.7 4.7 4.7
        12.3 0 17z
      "
      fill="currentColor"
    />
  </symbol>

  <symbol id="noteIcon" viewBox="0 0 512 512">
    <path
      d="M256 32C114.6 32 0 125.1 0 240c0 47.6 19.9 91.2 52.9 126.3C38 405.7 7 439.1 6.5 439.5c-6.6 7-8.4
        17.2-4.6 26S14.4 480 24 480c61.5 0 110-25.7 139.1-46.3C192 442.8 223.2 448 256 448c141.4 0 256-93.1
        256-208S397.4 32 256 32zm0 384c-28.3 0-56.3-4.3-83.2-12.8l-15.2-4.8-13 9.2c-23 16.3-58.5 35.3-102.6
        39.6 12-15.1 29.8-40.4 40.8-69.6l7.1-18.7-13.7-14.6C47.3 313.7 32 277.6 32 240c0-97 100.5-176 224-176s224
        79 224 176-100.5 176-224 176zm75.8-130.7C313 307.4 285.4 320 256
        320s-57-12.6-75.8-34.6c-5.7-6.7-15.8-7.4-22.5-1.8-6.8 5.8-7.5 15.8-1.8 22.6C180.7 335.3 217.2 352 256
        352s75.3-16.7 100.2-45.9c5.8-6.7 4.9-16.8-1.8-22.6-6.7-5.7-16.8-4.9-22.6 1.8zM192 216c13.3 0 24-10.7
        24-24s-10.7-24-24-24-24 10.7-24 24 10.7 24 24 24zm128 0c13.3 0 24-10.7 24-24s-10.7-24-24-24-24 10.7-24
        24 10.7 24 24 24z
      "
      fill="currentColor"
    />
  </symbol>

  <symbol id="promoIcon" viewBox="0 0 448 512">
    <path
      d="M112 224c61.9 0 112-50.1 112-112S173.9 0 112 0 0 50.1 0 112s50.1 112 112
        112zm0-160c26.5 0 48 21.5 48 48s-21.5 48-48 48-48-21.5-48-48 21.5-48 48-48zm224 224c-61.9 0-112 50.1-112
        112s50.1 112 112 112 112-50.1 112-112-50.1-112-112-112zm0 160c-26.5 0-48-21.5-48-48s21.5-48 48-48 48 21.5
        48 48-21.5 48-48 48zM392.3.2l31.6-.1c19.4-.1 30.9 21.8 19.7 37.8L77.4 501.6a23.95 23.95 0 0
        1-19.6 10.2l-33.4.1c-19.5 0-30.9-21.9-19.7-37.8l368-463.7C377.2 4 384.5.2 392.3.2z
      "
      fill="currentColor"
    />
  </symbol>

  <symbol id="addressIcon" viewBox="0 0 384 512">
    <path
      d="M172.268 501.67C26.97 291.031 0 269.413 0 192 0 85.961 85.961 0 192 0s192 85.961 192 192c0 77.413-26.97
        99.031-172.268 309.67-9.535 13.774-29.93 13.773-39.464 0zM192 272c44.183 0 80-35.817 80-80s-35.817-80-80-80-80
        35.817-80 80 35.817 80 80 80z
      "
      fill="currentColor"
    />
  </symbol>

  <symbol id="pointIcon" viewBox="0 0 512 512">
    <path
      d="M256 512A256 256 0 1 0 256 0a256 256 0 1 0 0 512zm0-352a96 96 0 1 1 0 192 96 96 0 1 1 0-192z"
      fill="currentColor"
    />
  </symbol>

  <symbol id="closeIcon" viewBox="0 0 24 24">
    <path d="M0 0h24v24H0V0z" fill="none" />
    <path
      d="M19 6.41L17.59 5 12 10.59 6.41 5 5 6.41 10.59 12 5 17.59 6.41 19 12 13.41
        17.59 19 19 17.59 13.41 12 19 6.41z
      "
      fill="currentColor"
    />
  </symbol>
</svg>