
<svg width="104" height="131" viewBox="0 0 104 131" fill="none" xmlns="http://www.w3.org/2000/svg">
<path d="M51.0285 99.0331C76.1666 99.0331 96.5451 78.6547 96.5451 53.5166C96.5451 28.3785 76.1666 8 51.0285 8C25.8904 8 5.51196 28.3785 5.51196 53.5166C5.51196 78.6547 25.8904 99.0331 51.0285 99.0331Z" fill="#090808"/>
<g filter="url(#filter0_f_60_2911)">
<path d="M52.0452 84.6981C70.8014 84.6981 86.0062 69.75 86.0062 51.3105C86.0062 32.871 70.8014 17.9229 52.0452 17.9229C33.2891 17.9229 18.0842 32.871 18.0842 51.3105C18.0842 69.75 33.2891 84.6981 52.0452 84.6981Z" fill="#F12820"/>
</g>
<path d="M60.5115 8.39648H42.5166V9.10217H60.5115V8.39648Z" fill="url(#paint0_linear_60_2911)"/>
<path d="M91.852 37.6299H10.4956V38.3003H91.852V37.6299Z" fill="url(#paint1_linear_60_2911)"/>
<path d="M65.7229 12.0576H35.9431V12.728H65.7229V12.0576Z" fill="url(#paint2_linear_60_2911)"/>
<path d="M65.8916 10.2041H36.1206V10.8745H65.8916V10.2041Z" fill="url(#paint3_linear_60_2911)"/>
<path d="M69.4029 13.6631H32.3987V14.3335H69.4029V13.6631Z" fill="url(#paint4_linear_60_2911)"/>
<path d="M72.5217 15.2598H29.2898V15.9302H72.5217V15.2598Z" fill="url(#paint5_linear_60_2911)"/>
<path d="M75.0364 16.8564H26.5913V17.5268H75.0364V16.8564Z" fill="url(#paint6_linear_60_2911)"/>
<path d="M77.4792 18.4521H24.4119V19.1225H77.4792V18.4521Z" fill="url(#paint7_linear_60_2911)"/>
<path d="M79.0895 20.0488H22.7407V20.7192H79.0895V20.0488Z" fill="url(#paint8_linear_60_2911)"/>
<path d="M81.0191 21.6553H20.7979V22.3257H81.0191V21.6553Z" fill="url(#paint9_linear_60_2911)"/>
<path d="M83.0283 23.25H18.8552V23.9204H83.0283V23.25Z" fill="url(#paint10_linear_60_2911)"/>
<path d="M84.2142 24.8477H17.5183V25.5181H84.2142V24.8477Z" fill="url(#paint11_linear_60_2911)"/>
<path d="M85.7981 26.4453H16.3413V27.1157H85.7981V26.4453Z" fill="url(#paint12_linear_60_2911)"/>
<path d="M86.9984 28.04H15.248V28.7104H86.9984V28.04Z" fill="url(#paint13_linear_60_2911)"/>
<path d="M87.6378 29.6377H14.4055V30.3081H87.6378V29.6377Z" fill="url(#paint14_linear_60_2911)"/>
<path d="M88.899 31.2344H13.3821V31.9048H88.899V31.2344Z" fill="url(#paint15_linear_60_2911)"/>
<path d="M89.3969 32.8301H12.5569V33.5005H89.3969V32.8301Z" fill="url(#paint16_linear_60_2911)"/>
<path d="M90.4374 34.4365H11.7979V35.1069H90.4374V34.4365Z" fill="url(#paint17_linear_60_2911)"/>
<path d="M91.1955 36.0332H10.7917V36.7036H91.1955V36.0332Z" fill="url(#paint18_linear_60_2911)"/>
<path d="M92.1152 39.2266H9.69141V39.897H92.1152V39.2266Z" fill="url(#paint19_linear_60_2911)"/>
<path d="M92.6125 40.8232H9.18311V41.4936H92.6125V40.8232Z" fill="url(#paint20_linear_60_2911)"/>
<path d="M92.9528 42.4189H8.93237V43.0893H92.9528V42.4189Z" fill="url(#paint21_linear_60_2911)"/>
<path d="M93.9702 44.0156H8.44141V44.686H93.9702V44.0156Z" fill="url(#paint22_linear_60_2911)"/>
<path d="M94.3871 45.6221H8.26733V46.2925H94.3871V45.6221Z" fill="url(#paint23_linear_60_2911)"/>
<path d="M94.3863 47.2188H7.67554V47.8892H94.3863V47.2188Z" fill="url(#paint24_linear_60_2911)"/>
<path d="M94.3863 48.8154H7.67554V49.4858H94.3863V48.8154Z" fill="url(#paint25_linear_60_2911)"/>
<path d="M94.3863 50.4111H7.67554V51.0815H94.3863V50.4111Z" fill="url(#paint26_linear_60_2911)"/>
<path d="M94.3863 52.0078H7.67554V52.6782H94.3863V52.0078Z" fill="url(#paint27_linear_60_2911)"/>
<path d="M94.3863 53.6035H7.67554V54.2739H94.3863V53.6035Z" fill="url(#paint28_linear_60_2911)"/>
<path d="M94.3863 55.21H7.67554V55.8804H94.3863V55.21Z" fill="url(#paint29_linear_60_2911)"/>
<path d="M94.3863 56.8066H7.67554V57.477H94.3863V56.8066Z" fill="url(#paint30_linear_60_2911)"/>
<path d="M94.3863 58.4033H7.67554V59.0737H94.3863V58.4033Z" fill="url(#paint31_linear_60_2911)"/>
<path d="M94.385 59.999H8.177V60.6694H94.385V59.999Z" fill="url(#paint32_linear_60_2911)"/>
<path d="M93.7999 61.5947H8.51807V62.2651H93.7999V61.5947Z" fill="url(#paint33_linear_60_2911)"/>
<path d="M93.5431 63.1924H8.85229V63.8628H93.5431V63.1924Z" fill="url(#paint34_linear_60_2911)"/>
<path d="M92.7007 64.7891H9.18311V65.4595H92.7007V64.7891Z" fill="url(#paint35_linear_60_2911)"/>
<path d="M92.1945 66.3955H9.69141V67.0659H92.1945V66.3955Z" fill="url(#paint36_linear_60_2911)"/>
<path d="M91.6868 67.9902H10.1892V68.6606H91.6868V67.9902Z" fill="url(#paint37_linear_60_2911)"/>
<path d="M91.1013 69.5879H10.6975V70.2583H91.1013V69.5879Z" fill="url(#paint38_linear_60_2911)"/>
<path d="M90.6806 71.1846H11.2825V71.855H90.6806V71.1846Z" fill="url(#paint39_linear_60_2911)"/>
<path d="M89.4993 72.7812H12.2888V73.4516H89.4993V72.7812Z" fill="url(#paint40_linear_60_2911)"/>
<path d="M88.5835 74.3779H13.2253V75.0483H88.5835V74.3779Z" fill="url(#paint41_linear_60_2911)"/>
<path d="M88.1945 75.9834H14.0713V76.6538H88.1945V75.9834Z" fill="url(#paint42_linear_60_2911)"/>
<path d="M86.7045 77.5791H15.0776V78.2495H86.7045V77.5791Z" fill="url(#paint43_linear_60_2911)"/>
<path d="M86.7148 79.1768H16.2612V79.8472H86.7148V79.1768Z" fill="url(#paint44_linear_60_2911)"/>
<path d="M86.7028 80.7744H17.4312V81.4448H86.7028V80.7744Z" fill="url(#paint45_linear_60_2911)"/>
<path d="M85.3611 82.3701H18.9387V83.0405H85.3611V82.3701Z" fill="url(#paint46_linear_60_2911)"/>
<path d="M85.3736 84.0547H20.6272V84.7251H85.3736V84.0547Z" fill="url(#paint47_linear_60_2911)"/>
<path d="M85.3687 85.5635H22.8452V86.2339H85.3687V85.5635Z" fill="url(#paint48_linear_60_2911)"/>
<path d="M87.0458 89.0215H22.7581V89.7272H87.0458V89.0215Z" fill="url(#paint49_linear_60_2911)"/>
<path d="M51.0285 99.0331C76.1666 99.0331 96.5451 78.6547 96.5451 53.5166C96.5451 28.3785 76.1666 8 51.0285 8C25.8904 8 5.51196 28.3785 5.51196 53.5166C5.51196 78.6547 25.8904 99.0331 51.0285 99.0331Z" stroke="#0046EF" stroke-width="1.05439" stroke-miterlimit="10"/>
<path d="M51.0341 97.4887C75.3197 97.4887 95.007 77.8014 95.007 53.5158C95.007 29.2303 75.3197 9.54297 51.0341 9.54297C26.7486 9.54297 7.06128 29.2303 7.06128 53.5158C7.06128 77.8014 26.7486 97.4887 51.0341 97.4887Z" stroke="#090808" stroke-width="1.59423" stroke-miterlimit="10"/>
<path d="M88.9725 32.6374C90.9307 36.1482 92.395 39.9147 93.3124 43.8225C94.221 47.7478 94.5826 51.7702 94.3974 55.7926C93.3742 76.769 77.4787 94.0053 56.6522 96.7222C56.4052 96.7575 56.1494 96.784 55.9024 96.8104C55.6554 96.8369 55.3996 96.8722 55.1526 96.8898L54.4028 96.9604L53.6442 97.0133L53.2649 97.0398L52.8856 97.0574L52.127 97.0839L51.3684 97.0927H50.9891H50.6186L49.86 97.0839L49.1014 97.0574C48.9779 97.0486 48.8456 97.0486 48.7221 97.0398L48.3428 97.0133C48.0958 96.9957 47.84 96.9868 47.593 96.9604C47.0902 96.9163 46.5874 96.881 46.0846 96.8192C45.8376 96.7928 45.5818 96.7663 45.3348 96.731L44.585 96.6252C36.549 95.4343 29.0159 92.0118 22.8323 86.7456C19.7538 84.1258 17.0545 81.0913 14.814 77.7305C10.3065 70.9912 7.79246 63.1141 7.54548 55.0075L7.53665 54.6282V54.2489L7.52783 53.4991L7.53665 52.7405L7.54548 52.3612L7.56312 51.9819L7.5984 51.2321L7.65133 50.4823L7.67779 50.103L7.71307 49.7237L7.78364 48.9739C8.87745 38.8915 13.482 29.5059 20.8035 22.4844C20.0978 23.1901 19.4009 23.9134 18.7394 24.672C18.5718 24.8572 18.413 25.0513 18.2454 25.2365C18.0778 25.4218 17.919 25.6158 17.7602 25.8099L17.2839 26.3921L16.8252 26.9919L16.5959 27.2918L16.3753 27.5918C16.2254 27.7946 16.0754 27.9887 15.9343 28.2004C15.6432 28.615 15.3609 29.0208 15.0786 29.4353C14.7964 29.8499 14.5317 30.2822 14.2671 30.7056C14.1348 30.9173 14.0113 31.1378 13.879 31.3495L13.6849 31.6759L13.4997 32.0023C12.9969 32.8667 12.547 33.7665 12.106 34.6574C11.6649 35.5483 11.2768 36.4745 10.8975 37.4096C10.1653 39.2708 9.55667 41.1761 9.08916 43.1256C8.61282 45.0662 8.27762 47.0421 8.07474 49.0269L8.01299 49.7767L7.97771 50.1471L7.95124 50.5176L7.90714 51.2674L7.88067 52.0172L7.87185 52.3877V52.767L7.86303 53.5168L7.87185 54.2666L7.88067 54.637L7.89832 55.0075C8.63928 75.7811 24.1026 93.0615 44.6644 96.1047L45.4054 96.2106C45.6524 96.2459 45.8993 96.2723 46.1463 96.2988C46.6403 96.3605 47.1343 96.3958 47.6371 96.4399C47.8841 96.4576 48.1311 96.4752 48.3869 96.4929L48.7574 96.5193C48.8809 96.5281 49.0043 96.5281 49.1278 96.537L49.8776 96.5634L50.6274 96.5722L50.9979 96.5811H51.3684L52.1182 96.5722L52.868 96.5458L53.2384 96.5281L53.6089 96.5017L54.3587 96.4576L55.0997 96.3958C55.3467 96.3782 55.5937 96.3517 55.8406 96.3164C56.0876 96.2811 56.3346 96.2635 56.5816 96.2282C64.5382 95.1962 72.0537 91.9677 78.2725 86.8868C81.3687 84.3639 84.1032 81.4177 86.3967 78.1451C91.0101 71.5646 93.6917 63.8197 94.1328 55.7926C94.3533 51.7879 94.0269 47.7743 93.1625 43.8666C92.2892 39.9412 90.8778 36.1658 88.9725 32.6374Z" fill="#0046EF"/>
<rect x="0.0645887" y="0.472251" width="2.73903" height="84.0582" transform="matrix(0.820083 0.572244 -0.636312 0.771432 92.9215 19.9909)" fill="#0046EF" stroke="#090808" stroke-width="0.702923"/>
<rect x="0.161298" y="0.452065" width="2.79131" height="82.9299" transform="matrix(0.917555 0.397609 -0.45862 0.888632 83.7289 17.9657)" fill="#0046EF" stroke="#090808" stroke-width="0.702923"/>
<path d="M19.8232 104.676L27.5025 87.0323C27.5025 87.0323 22.2065 77.4166 28.2969 71.1531C28.2969 71.1531 23.4422 61.6257 30.8567 55.1858C30.8567 55.1858 34.1226 52.8921 34.3874 52.8039C34.6522 52.7157 34.4757 51.4806 34.3874 51.1278C34.2991 50.7749 35.1818 49.3634 37.9181 48.1283C40.6544 46.8933 42.1549 46.2758 42.3315 46.1876C42.508 46.0993 41.6695 44.2968 41.3164 44.4144C40.9633 44.532 39.8159 45.0319 38.6242 45.5612C37.4326 46.0905 35.7997 45.5964 35.7997 44.0967C35.7997 42.597 34.661 41.9442 34.255 41.0885C33.5489 39.5888 33.1958 39.2359 32.8604 38.5037C32.8251 38.4331 32.878 38.4331 32.7986 38.4507C32.4455 38.539 31.96 38.8126 31.4746 38.3625C31.2092 38.1166 30.9008 36.0777 30.8126 34.7544C30.7243 33.4312 30.636 32.9371 29.7533 32.5843C28.8707 32.2314 28.6941 31.755 28.7824 31.4022C28.8707 31.0493 28.8707 26.462 28.8707 26.1973C28.8707 25.9327 27.988 25.3151 27.3701 26.1973C26.7522 27.0795 26.7522 27.8734 27.3701 28.4028C27.988 28.9321 28.7824 29.1085 28.2528 30.2553C27.7232 31.4022 28.2969 32.2755 29.0913 32.8048C29.8857 33.3341 29.9299 33.6958 29.9299 33.6958L29.974 34.2163C29.974 34.2163 28.8707 34.0487 28.2528 33.2547C27.8115 32.6901 27.5908 32.0726 27.5114 31.7727C27.476 31.6492 27.4584 31.5786 27.4584 31.5786C27.4584 31.5786 27.1053 33.0783 27.4584 33.5194C27.8115 33.9605 27.988 34.3133 27.988 34.3133C27.988 34.3133 27.6791 34.5251 27.5908 34.6133C27.5025 34.7015 26.9288 34.031 26.7522 33.343C26.5316 32.4872 26.8405 31.2257 27.1053 30.8729C27.3701 30.52 27.4584 29.726 26.8405 29.0203C26.2226 28.3145 25.8696 27.1236 25.8696 26.2855C25.8696 25.3857 25.746 20.719 26.9817 19.4839C26.9817 19.4839 29.0649 16.9256 29.8946 16.2199C31.2539 15.073 34.3697 13.8997 35.0141 13.6616C35.7202 13.3969 40.6191 12.2854 43.6643 13.1322C48.113 14.3673 50.9376 18.0813 52.5264 22.1393C54.1152 26.1973 53.5856 26.3737 53.6739 27.0795C53.7621 27.7852 54.38 27.4324 54.5565 27.8734C54.7331 28.3145 54.8213 30.6082 54.8213 32.4608C54.8213 32.4608 58.1314 36.7395 59.3671 38.989C60.6029 41.2386 61.7503 40.0035 62.3682 39.8271C62.9861 39.6506 65.9431 38.1068 66.0755 40.1005C66.7816 41.3356 68.1939 42.3854 69.4296 43.0911C74.4609 45.5171 75.2553 45.7377 77.8151 48.1196C80.3748 50.5014 81.6988 52.0099 82.8463 56.5973C83.9938 61.1846 90.8787 99.2064 90.9669 99.7357C91.0552 100.265 19.8232 104.676 19.8232 104.676Z" fill="#090808"/>
<path d="M27.5204 86.7661C27.1761 86.1485 26.876 85.5046 26.6112 84.8429C26.3464 84.1813 26.1169 83.5108 25.9227 82.8316C25.5344 81.4642 25.2872 80.0527 25.2607 78.6236C25.2254 77.1944 25.4284 75.7477 25.9139 74.3979C26.3994 73.0394 27.1938 71.8043 28.1912 70.7722L28.1647 70.9751C27.997 70.6398 27.8558 70.3046 27.7234 69.9606C27.591 69.6165 27.4674 69.2725 27.3615 68.9196C27.1408 68.2227 26.9643 67.5081 26.8319 66.7847C26.5671 65.3468 26.4877 63.8559 26.6642 62.3915C26.8407 60.9271 27.2732 59.4891 27.9794 58.1923C28.3236 57.5395 28.7473 56.9308 29.2063 56.3574C29.6741 55.784 30.1949 55.2635 30.7422 54.7783L30.751 54.7695L30.7598 54.7606C31.6954 54.1078 32.6311 53.455 33.5844 52.8199L33.9463 52.5817C34.0081 52.5464 34.0698 52.5023 34.1316 52.467C34.1581 52.4493 34.1934 52.4317 34.2287 52.4052L34.2817 52.3788L34.3258 52.3611L34.3435 52.3523C34.3435 52.3523 34.3346 52.3523 34.3346 52.3611C34.3082 52.3788 34.3082 52.3876 34.317 52.3699C34.3258 52.3611 34.3258 52.3347 34.3346 52.3082C34.3435 52.2553 34.3523 52.1935 34.3523 52.1318C34.3611 51.9994 34.3523 51.8671 34.3435 51.726C34.317 51.4525 34.2817 51.1702 34.2199 50.9144C34.2022 50.8438 34.2022 50.782 34.2111 50.7379C34.2199 50.685 34.2287 50.6409 34.2464 50.5968C34.2729 50.5174 34.3082 50.438 34.3435 50.3674C34.4141 50.2263 34.5024 50.1027 34.5995 49.9792C34.9702 49.5029 35.4203 49.1235 35.897 48.7883C36.3736 48.4531 36.8768 48.162 37.3975 47.9061C37.6535 47.7738 37.9183 47.6591 38.1831 47.5444L38.9599 47.1916L40.5222 46.5035L42.0934 45.8242L42.1905 45.7801L42.2346 45.7624L42.2523 45.7536C42.2523 45.7536 42.2611 45.7448 42.2611 45.7536C42.2523 45.7624 42.2434 45.7624 42.2258 45.7801C42.1993 45.7977 42.1905 45.833 42.1816 45.8506C42.1728 45.8683 42.1728 45.8859 42.1816 45.8948C42.1816 45.9124 42.1816 45.9036 42.1816 45.9036C42.1816 45.8948 42.164 45.8683 42.1463 45.8506C42.0845 45.7624 41.4529 44.8361 41.3558 44.7567C41.3029 44.7215 41.2587 44.6774 41.2058 44.6509C41.1616 44.6244 41.0998 44.598 41.0822 44.598C41.0734 44.598 41.0734 44.598 41.0822 44.598L40.9851 44.6332C40.9233 44.6597 40.8527 44.6862 40.7909 44.7126C40.2701 44.9244 39.7582 45.1714 39.2551 45.4272L38.8755 45.6213C38.7519 45.6919 38.6107 45.7536 38.4783 45.8154C38.2047 45.93 37.9046 46.0271 37.5868 46.0447C37.269 46.0712 36.6424 45.8153 36.3599 45.63C36.0775 45.4448 35.8744 45.1713 35.7509 44.889C35.6891 44.7479 35.6361 44.5979 35.4468 44.1304C35.4203 43.9981 35.3939 43.8569 35.3586 43.7246C35.2968 43.4511 35.2173 43.1865 35.1202 42.9306C35.0761 42.8071 35.0143 42.6836 34.9525 42.5689C34.8907 42.4543 34.8113 42.3396 34.7319 42.2249C34.573 41.9955 34.3964 41.7662 34.2376 41.5192C34.0787 41.2721 33.9286 41.0251 33.7874 40.7693C33.655 40.5135 33.5226 40.2576 33.399 40.0018C33.2754 39.746 33.1519 39.4901 33.0195 39.2343L32.8253 38.855C32.7988 38.802 32.79 38.7756 32.7723 38.7491C32.7635 38.7226 32.7458 38.6962 32.737 38.6874C32.737 38.6785 32.7282 38.6785 32.737 38.6874C32.7458 38.6874 32.7723 38.7138 32.8253 38.7226C32.8341 38.7226 32.8606 38.7226 32.8606 38.7226H32.8518L32.8253 38.7315L32.7723 38.7403L32.3575 38.8462C32.2162 38.8814 32.075 38.9167 31.9073 38.9344C31.8278 38.9432 31.7308 38.9432 31.6337 38.9255C31.5895 38.9167 31.5454 38.9079 31.5013 38.8903C31.4483 38.8726 31.3953 38.8462 31.3512 38.8109C31.1835 38.6785 31.1041 38.5286 31.0423 38.3786C30.9187 38.0875 30.8569 37.7964 30.8039 37.5052C30.751 37.2141 30.7245 36.9318 30.698 36.6407C30.6451 36.0673 30.6186 35.4939 30.5833 34.9293C30.5656 34.647 30.548 34.3647 30.5127 34.0912C30.4774 33.8177 30.4244 33.5531 30.3096 33.3502C30.1949 33.1473 30.0007 32.9973 29.7624 32.8826C29.6476 32.8209 29.4976 32.7591 29.374 32.6797C29.2416 32.6003 29.1092 32.5033 28.9945 32.3886C28.765 32.1681 28.5884 31.8593 28.5531 31.5153C28.5443 31.4711 28.5443 31.427 28.5443 31.3829V31.2771V31.0653L28.5531 30.6419L28.5796 28.9305L28.6061 27.219L28.6237 26.3633V26.2575V26.2045V26.1957C28.6237 26.1957 28.6237 26.1957 28.6237 26.2045C28.6237 26.2134 28.6237 26.2134 28.6237 26.2134C28.6237 26.2134 28.6237 26.2045 28.6061 26.1869C28.5973 26.1693 28.5796 26.1516 28.5619 26.134C28.4913 26.0634 28.3854 26.0016 28.2795 25.9752C28.0676 25.9134 27.8558 25.9664 27.6793 26.1163C27.6351 26.1516 27.5998 26.1957 27.5557 26.2398L27.5027 26.3104L27.4498 26.3898C27.3792 26.5045 27.3085 26.6192 27.2556 26.7338C27.1408 26.972 27.0791 27.219 27.0879 27.4572C27.0967 27.6954 27.185 27.916 27.3527 28.1012C27.3968 28.1453 27.441 28.1894 27.4851 28.2335C27.538 28.2777 27.591 28.3129 27.644 28.3571C27.7499 28.4365 27.8735 28.5158 27.9882 28.6041C28.1118 28.6923 28.2354 28.7893 28.3501 28.9128C28.4649 29.0363 28.5619 29.2039 28.5973 29.3892C28.6326 29.5745 28.6149 29.7421 28.5796 29.9009C28.5443 30.0597 28.4825 30.2096 28.4207 30.342C28.3148 30.5801 28.2442 30.836 28.2177 31.0918C28.2001 31.3476 28.2265 31.6035 28.3148 31.8505C28.4031 32.0887 28.5355 32.318 28.712 32.5033C28.8003 32.6003 28.8974 32.6797 29.0033 32.7591L29.3564 32.9973C29.4711 33.0767 29.5947 33.1649 29.7094 33.2443C29.7712 33.2884 29.8242 33.3325 29.886 33.3766L29.9742 33.4472L30.0184 33.4825C30.036 33.5002 30.0448 33.509 30.0713 33.5266L30.1331 33.5884V33.6766V34.3823V34.6823L29.8595 34.5852C29.6829 34.5235 29.5329 34.4529 29.3828 34.3823C29.2328 34.3029 29.0827 34.2235 28.9327 34.1265C28.6414 33.9412 28.3766 33.7207 28.1471 33.4472C27.9264 33.1826 27.7411 32.8826 27.591 32.5739C27.5204 32.4239 27.4498 32.2651 27.3968 32.1063C27.335 31.9475 27.2909 31.7887 27.2468 31.6035L27.6528 31.6123C27.5998 31.8417 27.5645 32.0798 27.5292 32.3092C27.5027 32.5474 27.4851 32.7768 27.5027 32.9973C27.5116 33.1032 27.5292 33.2179 27.5645 33.2973C27.5734 33.3149 27.5822 33.3325 27.591 33.3502C27.5998 33.359 27.5998 33.359 27.6087 33.3678C27.6087 33.3766 27.6263 33.3943 27.6351 33.4031C27.6704 33.456 27.7146 33.5002 27.7499 33.5531C27.8293 33.6589 27.8999 33.756 27.9706 33.8707C28.0412 33.9765 28.103 34.0824 28.1647 34.2059L28.2442 34.3559L28.103 34.4617C27.9794 34.5499 27.8558 34.647 27.7499 34.744L27.7146 34.7793L27.6969 34.797L27.6881 34.8058C27.6616 34.8411 27.6087 34.8587 27.5734 34.8675C27.4939 34.8852 27.4498 34.8587 27.4233 34.8499C27.3968 34.8411 27.3792 34.8234 27.3615 34.8146C27.335 34.797 27.3085 34.7793 27.2909 34.7617C27.2203 34.6911 27.1673 34.6293 27.1144 34.5588C26.9202 34.2853 26.7701 34.003 26.6465 33.6942C26.5848 33.5443 26.5406 33.3766 26.5141 33.209C26.4877 33.0414 26.47 32.8826 26.47 32.715C26.47 32.3886 26.5053 32.0622 26.5671 31.7534C26.6024 31.5946 26.6377 31.4359 26.6907 31.2859C26.7436 31.1271 26.7966 30.9771 26.8937 30.8183C26.9025 30.8007 26.9202 30.7742 26.9378 30.7566L26.9643 30.7213C26.982 30.6948 26.9908 30.6684 27.0084 30.6419C27.0349 30.589 27.0526 30.5272 27.0702 30.4655C27.1055 30.342 27.1144 30.2008 27.0967 30.0685C27.0791 29.8038 26.9731 29.5392 26.8054 29.3098C26.7613 29.2481 26.726 29.2039 26.673 29.1422C26.6201 29.0804 26.5671 29.0099 26.523 28.9481L26.4524 28.8423L26.3906 28.7364C26.3464 28.6658 26.3111 28.5952 26.267 28.5247C25.9757 27.9424 25.8168 27.3161 25.7197 26.6986C25.6668 26.3898 25.6403 26.0634 25.6315 25.7546C25.6138 25.4459 25.6138 25.1283 25.6138 24.8195C25.6226 24.1932 25.6491 23.5668 25.7197 22.9493C25.7903 22.323 25.8963 21.7054 26.0728 21.0967C26.2493 20.488 26.4788 19.8881 26.8407 19.35C27.2026 18.8295 27.6087 18.3532 28.0235 17.8856C28.4472 17.4269 28.8885 16.977 29.3652 16.5712C29.8418 16.1565 30.3538 15.786 30.8834 15.4596C31.9426 14.7892 33.0901 14.251 34.2993 13.907C35.5086 13.5717 36.7267 13.3336 37.9536 13.1483C39.1894 12.9719 40.4339 12.866 41.6873 12.9013C41.9963 12.9101 42.314 12.9278 42.623 12.963C42.9319 12.9983 43.2497 13.0424 43.5586 13.1042C44.1853 13.2277 44.7767 13.4394 45.3593 13.6953C45.933 13.9511 46.4803 14.2687 47.001 14.6215C47.5218 14.9744 48.0073 15.3714 48.4751 15.7948C49.4019 16.6417 50.2052 17.6121 50.9025 18.6443C51.5998 19.6852 52.1824 20.7968 52.6502 21.9524C52.8797 22.5347 53.0915 23.1081 53.2945 23.6992C53.4887 24.2902 53.6741 24.8901 53.7888 25.5076C53.8418 25.8164 53.8771 26.1428 53.8683 26.4692C53.8594 26.628 53.8418 26.7868 53.8418 26.9191C53.8418 27.0514 53.8683 27.1926 53.9212 27.2632C53.9477 27.2984 53.9742 27.3249 54.0271 27.3514C54.0713 27.3778 54.1419 27.3955 54.2125 27.4131C54.2831 27.4308 54.3802 27.4572 54.4685 27.5102C54.5656 27.5631 54.6538 27.6513 54.698 27.7572C54.7421 27.8542 54.7598 27.9424 54.7774 28.0218C54.7951 28.1012 54.8039 28.1806 54.8127 28.26C54.8304 28.4188 54.848 28.5776 54.8657 28.7276C54.9186 29.3539 54.9451 29.9714 54.9628 30.589C54.9804 31.2065 54.9893 31.8328 54.9893 32.4504L54.954 32.3533C56.3839 34.4 57.8138 36.4554 59.2526 38.4933L60.4795 40.1782C60.4707 40.1782 60.4972 40.1959 60.4707 40.1694C60.4177 40.1341 60.4089 40.143 60.4001 40.143C60.4089 40.143 60.4265 40.143 60.4442 40.1341C60.4795 40.1253 60.5148 40.1253 60.5501 40.1165C60.6207 40.0988 60.7002 40.0812 60.7708 40.0636C61.0709 39.993 61.371 39.9136 61.6711 39.8254C62.2713 39.6578 62.8716 39.4901 63.4718 39.3137L64.3633 39.0579C64.5045 39.0138 64.6457 38.952 64.8134 38.9079C64.9723 38.8638 65.1753 38.8373 65.3695 38.8991C65.5549 38.9608 65.7049 39.0755 65.8197 39.199C65.9344 39.3225 66.0315 39.4549 66.1198 39.596C66.1639 39.6666 66.2081 39.7372 66.2434 39.7989L66.3581 39.993C66.4376 40.1253 66.5258 40.2488 66.6141 40.3811C67.3202 41.3868 68.2559 42.2337 69.3327 42.816C69.88 43.1071 70.4449 43.3717 71.0098 43.6452C71.5747 43.9187 72.1308 44.201 72.6869 44.4921C73.7991 45.0743 74.8936 45.6919 75.9263 46.4064C76.4383 46.7681 76.9414 47.1474 77.4092 47.5709C77.8682 47.9943 78.3272 48.4266 78.7774 48.8677C79.2275 49.3088 79.66 49.7587 80.0661 50.2439C80.4721 50.7291 80.8428 51.2408 81.1694 51.7789C81.8226 52.8551 82.2993 54.0373 82.6523 55.237C82.8289 55.8369 82.9877 56.4456 83.1201 57.0543C83.2525 57.663 83.3761 58.2805 83.4997 58.8892C83.7468 60.1155 83.9852 61.3417 84.2147 62.5679C85.1503 67.4817 86.0506 72.3954 86.9421 77.3091C86.0153 72.3954 85.0797 67.4905 84.1087 62.5856C83.8616 61.3593 83.6233 60.1331 83.3673 58.9157C83.1113 57.6895 82.873 56.4633 82.5023 55.2811C82.1404 54.0902 81.6637 52.9345 81.0194 51.8759C80.6928 51.3466 80.3221 50.8526 79.9249 50.3762C79.5188 49.8998 79.0863 49.4588 78.645 49.0265C78.1948 48.5942 77.7358 48.1708 77.2768 47.7473C76.8178 47.3327 76.3147 46.9622 75.8028 46.6093C74.7789 45.9124 73.6843 45.2949 72.581 44.7303C72.0249 44.448 71.4688 44.1745 70.9039 43.901C70.339 43.6276 69.7741 43.3717 69.2092 43.0806C68.0882 42.4807 67.1172 41.6074 66.3758 40.5664C66.2875 40.4341 66.1992 40.3017 66.111 40.1694L65.9874 39.9665C65.9433 39.8959 65.908 39.8342 65.8727 39.7724C65.7932 39.6489 65.7049 39.5254 65.6079 39.4284C65.5108 39.3225 65.4048 39.2431 65.2901 39.2078C65.1753 39.1726 65.0518 39.1814 64.9194 39.2255C64.787 39.2608 64.6369 39.3313 64.4869 39.3755L63.5865 39.6401C62.9863 39.8165 62.3861 39.993 61.777 40.1518C61.4769 40.2312 61.1768 40.3194 60.8679 40.39C60.7884 40.4076 60.709 40.4253 60.6296 40.4429C60.5854 40.4517 60.5501 40.4605 60.506 40.4694C60.4795 40.4694 60.4619 40.4782 60.4354 40.4782C60.4177 40.4782 60.4089 40.4782 60.3736 40.4782C60.3559 40.4694 60.3383 40.4782 60.2765 40.4429C60.2412 40.4076 60.2588 40.4253 60.25 40.4164C60.2235 40.3811 60.1882 40.337 60.1617 40.3017L60.0911 40.2047L58.979 38.6874C57.5314 36.6495 56.1014 34.6029 54.6627 32.5562L54.6274 32.5121V32.4592C54.6274 31.8417 54.6185 31.2241 54.6009 30.6066C54.5832 29.9891 54.5568 29.3716 54.5038 28.7629C54.4861 28.6129 54.4773 28.4629 54.4508 28.3129C54.442 28.2424 54.4332 28.163 54.4155 28.0924C54.3979 28.0218 54.3802 27.9513 54.3626 27.916C54.3449 27.8719 54.3184 27.8542 54.2831 27.8277C54.239 27.8013 54.1772 27.7836 54.1066 27.766C54.036 27.7484 53.9477 27.7219 53.8506 27.6778C53.7623 27.6337 53.6652 27.5631 53.6035 27.4661C53.5417 27.3778 53.5064 27.2808 53.4887 27.1926C53.4711 27.1044 53.4622 27.0161 53.4622 26.9279C53.4622 26.7515 53.4799 26.6015 53.4887 26.4515C53.5064 26.1604 53.4711 25.8693 53.4181 25.5694C53.3122 24.9783 53.1268 24.3873 52.9326 23.805C52.7384 23.2228 52.5178 22.6494 52.2883 22.0759C51.8293 20.9379 51.2555 19.8529 50.5759 18.8384C49.8962 17.8238 49.1018 16.8799 48.2015 16.0507C47.7513 15.636 47.2747 15.2567 46.7716 14.9127C46.2684 14.5686 45.7388 14.2687 45.1827 14.0217C44.6266 13.7746 44.0529 13.5717 43.4615 13.4571C42.8701 13.3336 42.2611 13.2718 41.652 13.2542C40.4339 13.2189 39.207 13.3247 37.9889 13.5012C36.7708 13.6776 35.5616 13.9246 34.3876 14.251C33.2137 14.5863 32.1015 15.1067 31.0687 15.7595C30.548 16.086 30.0625 16.4388 29.6035 16.8446C29.1445 17.2416 28.712 17.6739 28.2971 18.1326C27.8911 18.5825 27.4939 19.0589 27.1497 19.5529C26.8231 20.0381 26.6024 20.6027 26.4347 21.1849C26.267 21.7672 26.1699 22.3671 26.0993 22.9758C26.0287 23.5845 26.0022 24.1932 25.9934 24.8019C25.9934 25.1106 25.9934 25.4106 26.011 25.7193C26.0198 26.0281 26.0463 26.3192 26.0993 26.6192C26.1964 27.2102 26.3464 27.8013 26.6112 28.3306C26.6465 28.3923 26.6818 28.4629 26.7172 28.5247L26.7701 28.6129L26.8319 28.7011C26.8672 28.7629 26.9202 28.8158 26.9643 28.8687C27.0173 28.9305 27.0702 29.001 27.1232 29.0628C27.3174 29.3363 27.4586 29.6715 27.4851 30.0244C27.5027 30.2008 27.4851 30.3772 27.4498 30.5537C27.4321 30.6419 27.3968 30.7301 27.3615 30.8095C27.3439 30.8536 27.3174 30.8889 27.2909 30.933C27.2821 30.9507 27.2644 30.9771 27.2556 30.9859C27.2468 30.9948 27.2379 31.0036 27.2291 31.0212C27.1673 31.1271 27.1144 31.2682 27.0702 31.4006C27.0261 31.5417 26.9908 31.6829 26.9643 31.824C26.9025 32.1151 26.876 32.4063 26.876 32.6974C26.876 32.8385 26.8937 32.9885 26.9113 33.1296C26.9378 33.2708 26.9731 33.4031 27.0261 33.5354C27.132 33.8001 27.2732 34.0736 27.441 34.3029C27.4851 34.3559 27.5292 34.4176 27.5645 34.4529C27.5734 34.4617 27.5822 34.4705 27.5822 34.4705C27.5822 34.4705 27.5822 34.4705 27.5734 34.4617C27.5645 34.4617 27.5469 34.4441 27.4851 34.4529C27.4586 34.4617 27.4145 34.4794 27.3968 34.5058L27.4145 34.4882L27.441 34.4617L27.4939 34.4176C27.6175 34.3118 27.7411 34.2235 27.8646 34.1265L27.8028 34.3823C27.7499 34.2853 27.6881 34.1794 27.6263 34.0824C27.5645 33.9854 27.4939 33.8883 27.4233 33.7913C27.388 33.7472 27.3527 33.6942 27.3174 33.6501C27.3085 33.6413 27.2997 33.6325 27.2909 33.6148L27.2556 33.5619C27.2379 33.5266 27.2115 33.4913 27.2026 33.4472C27.1408 33.2973 27.1232 33.1649 27.1144 33.0238C27.0967 32.7591 27.1144 32.5033 27.1408 32.2475C27.1673 31.9916 27.2115 31.7534 27.2644 31.4976L27.4674 30.5801L27.6704 31.4976C27.6969 31.6388 27.7499 31.7887 27.8028 31.9387C27.8558 32.0887 27.9176 32.2298 27.9882 32.371C28.1206 32.6533 28.2883 32.9179 28.4825 33.1561C28.6767 33.3855 28.915 33.5795 29.1798 33.756C29.3122 33.8354 29.4446 33.9148 29.5859 33.9853C29.7271 34.0559 29.8771 34.1177 30.0095 34.1706L29.7359 34.3735V33.6678L29.7977 33.8177L29.7712 33.7913L29.7359 33.756L29.6565 33.6942C29.6035 33.6501 29.5505 33.6148 29.4888 33.5707C29.374 33.4913 29.2593 33.4031 29.1445 33.3237L28.7826 33.0767C28.659 32.9885 28.5355 32.8826 28.4295 32.7679C28.2177 32.5386 28.05 32.2651 27.9441 31.9652C27.8382 31.6652 27.8028 31.3476 27.8293 31.0389C27.8558 30.7301 27.9352 30.4214 28.0677 30.1479C28.1824 29.9097 28.253 29.6539 28.2177 29.451C28.2001 29.3539 28.1471 29.2657 28.0765 29.1775C27.997 29.0893 27.8999 29.0099 27.7852 28.9305C27.6704 28.8511 27.5557 28.7717 27.4321 28.6835C27.3703 28.6394 27.3085 28.5952 27.2556 28.5423C27.1938 28.4894 27.132 28.4364 27.0791 28.3747C26.9731 28.2512 26.876 28.11 26.8143 27.9513C26.7525 27.7925 26.7172 27.6248 26.7083 27.4661C26.6995 27.1308 26.7878 26.8221 26.9202 26.5398C26.982 26.3986 27.0614 26.2663 27.1408 26.1428L27.2026 26.0457C27.2291 26.0105 27.2468 25.984 27.2732 25.9487C27.3262 25.887 27.3792 25.8252 27.4498 25.7723C27.5734 25.6576 27.7411 25.5694 27.9176 25.5253C28.0941 25.4812 28.2795 25.49 28.4472 25.5429C28.6149 25.5958 28.7738 25.6752 28.9062 25.7987C28.9415 25.834 28.968 25.8693 29.0033 25.9046C29.0298 25.9487 29.0651 25.9928 29.0827 26.0722C29.0916 26.0899 29.0916 26.1075 29.0916 26.134V26.1693V26.1869V26.2398V26.3457L29.0739 27.2014L29.0386 28.9128L29.0121 30.6243L29.0033 31.0477V31.2594V31.3653C29.0033 31.3917 29.0033 31.4182 29.0121 31.4535C29.0386 31.6829 29.1533 31.8946 29.3299 32.071C29.4181 32.1592 29.5241 32.2298 29.63 32.3004C29.7447 32.371 29.8507 32.4151 29.9919 32.4945C30.1243 32.565 30.2655 32.6444 30.3891 32.7503C30.5127 32.8562 30.6274 32.9885 30.7157 33.1296C30.8039 33.2796 30.8569 33.4296 30.8922 33.5795C30.9275 33.7295 30.954 33.8795 30.9717 34.0295C31.007 34.3206 31.0246 34.6117 31.0423 34.894C31.0776 35.4674 31.1041 36.032 31.157 36.5966C31.1835 36.8789 31.2188 37.1524 31.2629 37.4258C31.3071 37.6993 31.3689 37.9728 31.466 38.2022C31.5101 38.3168 31.5807 38.4227 31.6425 38.4668C31.6601 38.4756 31.669 38.4845 31.6866 38.4933C31.7043 38.5021 31.7308 38.5109 31.7572 38.5109C31.8014 38.5197 31.8543 38.5197 31.9073 38.5109C32.022 38.5021 32.1633 38.4668 32.2957 38.4315L32.7105 38.3257L32.7635 38.3168L32.79 38.308H32.7988C32.8164 38.308 32.8429 38.2992 32.8606 38.2992C32.9047 38.2992 32.9488 38.3168 32.9753 38.3257C33.0018 38.3433 33.0283 38.361 33.0459 38.3698C33.0812 38.3962 33.0989 38.4227 33.1166 38.4492C33.1519 38.4933 33.1695 38.5374 33.1872 38.5727C33.2048 38.608 33.2225 38.6521 33.2225 38.6609L33.4167 39.0402C33.5491 39.2961 33.6726 39.5519 33.7962 39.8077C34.0434 40.3194 34.2905 40.8222 34.5995 41.281C34.7495 41.5103 34.9172 41.7397 35.0938 41.9691C35.182 42.0926 35.2615 42.2161 35.3321 42.3484C35.4027 42.4807 35.4733 42.6219 35.5263 42.763C35.6322 43.0453 35.7116 43.3276 35.7822 43.6099C35.8175 43.7511 35.844 43.8922 35.8793 44.0334C35.9058 44.148 36.0951 44.5891 36.1481 44.7038C36.254 44.9331 36.4041 45.136 36.6071 45.2683C37.0837 45.586 37.3308 45.6301 37.578 45.6213C37.8339 45.6036 38.0899 45.5242 38.3371 45.4272C38.4606 45.3743 38.5842 45.3125 38.7078 45.2508C38.8314 45.1802 38.9638 45.1184 39.0873 45.0567C39.5993 44.8009 40.1201 44.5538 40.6585 44.3333C40.7291 44.3068 40.7909 44.2804 40.8615 44.2539L40.9674 44.2186L40.9851 44.2098C40.9851 44.2098 40.9939 44.2098 41.0116 44.201C41.0292 44.1922 41.0557 44.1922 41.0734 44.1922C41.1087 44.1922 41.144 44.1922 41.1793 44.1922C41.294 44.2098 41.3735 44.2539 41.4529 44.298C41.5235 44.3421 41.5941 44.3862 41.6559 44.4392C41.7795 44.545 41.8854 44.6509 41.9913 44.792C42.0178 44.8273 42.5788 45.7007 42.5965 45.7536C42.6053 45.7801 42.623 45.8154 42.623 45.8683C42.623 45.8948 42.623 45.93 42.6141 45.9653C42.6053 46.0094 42.5788 46.0535 42.5435 46.0888C42.5259 46.1065 42.5082 46.1153 42.4906 46.1241C42.4729 46.1329 42.4817 46.1329 42.4729 46.1329L42.4464 46.1418L42.3935 46.1682L42.2964 46.2123L40.7252 46.8916L39.1629 47.5797L38.3861 47.9326C38.1213 48.0473 37.8654 48.162 37.6182 48.2855C37.1151 48.5325 36.6296 48.8148 36.1706 49.1412C35.7204 49.4676 35.2879 49.8293 34.9525 50.2527C34.8731 50.3586 34.7936 50.4733 34.7319 50.5791C34.7054 50.6321 34.6789 50.6938 34.6612 50.7467C34.6436 50.7997 34.6436 50.8526 34.6436 50.8526C34.7142 51.1525 34.7495 51.4348 34.776 51.726C34.7848 51.8759 34.7936 52.0259 34.7848 52.1759C34.7848 52.2553 34.776 52.3347 34.7583 52.4229C34.7495 52.467 34.7407 52.5111 34.7142 52.564C34.6877 52.617 34.6524 52.6787 34.5641 52.7405C34.5553 52.7493 34.5377 52.7493 34.5288 52.7581C34.5112 52.7669 34.52 52.7581 34.52 52.7669C34.52 52.7669 34.52 52.7669 34.5112 52.7669L34.4759 52.7846L34.3876 52.8375L34.2111 52.9522L33.858 53.1815C32.9135 53.8079 31.9779 54.4607 31.0423 55.1135L31.0599 55.1047C30.5215 55.5723 30.0184 56.0839 29.5594 56.6397C29.1092 57.1955 28.7032 57.7865 28.3678 58.4129C27.6881 59.6656 27.2644 61.0594 27.0879 62.4709C26.9202 63.8912 26.9908 65.338 27.2468 66.7494C27.3703 67.4552 27.5469 68.1521 27.7587 68.8402C27.8646 69.1843 27.9794 69.5195 28.1118 69.8547C28.2442 70.1899 28.3766 70.5252 28.5355 70.8339L28.5884 70.9486L28.5002 71.0368C28.0147 71.5397 27.5734 72.0778 27.2026 72.6689C26.8231 73.2511 26.5141 73.8863 26.2758 74.5303C25.7815 75.8359 25.5785 77.2385 25.5785 78.6412C25.5785 79.3381 25.6315 80.0439 25.7286 80.7408C25.8257 81.4377 25.9581 82.1258 26.1346 82.8139C26.3111 83.4932 26.5141 84.1725 26.7525 84.8341C26.876 85.1693 26.9996 85.4957 27.132 85.8221C27.2291 86.1221 27.3703 86.4397 27.5204 86.7661Z" fill="#E60D0D"/>
<path d="M76.8686 48.3662C76.8686 48.3662 81.282 50.8363 83.577 64.2454C85.8719 77.6545 88.5199 90.0932 87.9903 96.2685L86.4457 96.3126C86.4457 96.3126 86.3574 88.2848 84.5038 78.4044C82.6502 68.524 82.4736 67.4654 82.4736 67.4654V96.3126H80.8848C80.8848 96.3126 81.2379 69.4062 79.9139 63.4073C79.9139 63.4073 77.4424 79.9041 76.5597 84.4032C75.677 88.9023 74.2647 96.3126 74.2647 96.3126H72.5876C72.5876 96.3126 77.1776 70.9059 77.6189 67.9065C77.9631 65.5422 77.6189 56.7028 77.2658 52.9094C76.9128 49.1161 76.8686 48.3662 76.8686 48.3662Z" fill="#E60D0D"/>
<path d="M74.0406 46.7779C74.0406 46.7779 75.0998 51.8063 73.6875 58.5109C73.1844 60.8928 72.8931 62.6571 71.7456 65.9212C71.7456 65.9212 73.7758 55.8643 73.5992 52.2474C73.4845 49.8655 73.0255 46.822 72.8489 46.3809C72.6724 45.9398 68.3473 43.3815 68.0825 43.2051C68.0825 43.2051 69.583 47.1749 68.6121 52.4679C67.6412 57.761 66.3171 61.819 66.3171 61.819C66.3171 61.819 69.7596 54.0559 70.3774 51.2329C70.9953 48.4099 70.9953 47.3513 70.9953 47.3513C70.9953 47.3513 72.2311 50.88 71.0836 61.2015C69.9361 71.523 68.8769 78.5804 68.6121 79.9919C68.6121 79.9919 73.3344 69.5381 74.7467 63.01C76.159 56.4819 76.821 53.4383 75.6735 47.9688C75.6735 47.9688 74.526 46.9102 74.0406 46.7779Z" fill="#E60D0D"/>
<path d="M60.6316 41.5733C60.6316 41.5733 66.0159 45.4549 67.3399 46.9546C68.6639 48.4543 67.3399 40.6029 64.7802 39.9854C64.7802 39.9854 61.3377 41.044 60.6316 41.5733Z" fill="#E60D0D"/>
<path d="M35.9153 50.5707C35.9153 50.5707 38.7398 48.8064 43.418 49.2475C48.0962 49.6885 52.0683 50.2178 56.8347 57.7164C61.6012 65.2149 63.8961 70.5962 64.3375 73.3309C64.3375 73.3309 63.5872 67.288 60.8509 62.5242C58.1146 57.7605 54.1425 51.2324 50.8766 50.0855C50.8766 50.0855 55.952 50.5707 59.0414 54.8934C62.1308 59.2161 64.7347 63.6711 65.2643 65.0825C65.2643 65.0825 64.5581 61.6421 62.881 58.6426C61.6806 56.499 59.2179 52.6879 56.3492 50.7913C53.9748 49.221 51.2297 47.7919 45.2275 47.7919C45.2275 47.7919 50.347 46.645 56.0844 49.8209C61.8218 52.9967 64.0285 54.8493 66.3235 57.9369C66.3235 57.9369 67.1179 56.2608 67.1179 55.6432C67.1179 55.0257 64.1609 52.0704 61.3805 50.1737C58.7325 48.3653 55.952 46.6009 52.2889 45.8511C49.0318 45.1806 47.4783 44.6601 42.8002 46.4245C38.3515 48.1006 37.2834 48.9387 35.9153 50.5707Z" fill="#E60D0D"/>
<path d="M60.3689 67.9502C60.3689 67.9502 60.722 68.9206 60.6337 69.0088C60.5455 69.097 57.9857 72.5375 53.2192 72.5375C53.2192 72.5375 58.736 71.0819 60.3689 67.9502Z" fill="#0046EF"/>
<path d="M61.3395 69.9795C61.3395 69.9795 61.8691 72.3614 58.5149 76.9487C58.5149 76.9487 61.0747 75.0079 61.516 73.9493C61.9573 72.8907 61.4277 70.7735 61.3395 69.9795Z" fill="#0046EF"/>
<path d="M61.4283 76.0664C61.4283 76.0664 61.6931 81.4477 61.4283 82.5945C61.1635 83.7414 59.3099 87.1819 57.4563 88.858C57.4563 88.858 59.1334 84.8882 59.7954 83.1679C60.4133 81.5712 60.0602 79.551 60.0602 78.5806C60.0602 77.6102 60.0602 77.6102 60.0602 77.6102L61.4283 76.0664Z" fill="#0046EF"/>
<path d="M58.162 89.2995L59.8391 87.7998C59.8391 87.7998 60.2805 93.3575 60.1922 94.0633C60.1039 94.769 59.2213 96.4452 57.9855 97.0627C56.7498 97.6802 58.6917 95.7394 58.7358 94.6367C58.7799 93.4016 58.5593 90.4022 58.162 89.2995Z" fill="#0046EF"/>
<path d="M60.3691 96.7988V99.0925H57.4563C57.4563 99.0925 59.9278 97.5928 60.3691 96.7988Z" fill="#0046EF"/>
<path d="M50.6499 83.7412C50.6499 83.7412 50.4557 87.2611 52.327 89.0343C54.0924 90.7104 56.2108 91.769 56.2108 91.769C56.2108 91.769 51.6827 91.0898 50.6499 88.8578C49.5907 86.5642 50.5617 84.2705 50.6499 83.7412Z" fill="#0046EF"/>
<path d="M49.5121 44.3961C49.5121 44.3961 50.6596 42.9846 53.7489 41.3085C53.7489 41.3085 51.9836 40.6027 50.3065 42.1024C48.6294 43.6021 48.4529 44.3961 48.4529 44.3961H49.5121Z" fill="#0046EF"/>
<path d="M45.9808 52.2473C45.9808 52.2473 41.3908 49.689 35.9183 53.0413C30.4457 56.3935 31.1077 61.8542 31.3283 63.1863C31.6814 65.3035 32.3876 67.1561 32.5641 67.5972C32.7406 68.0383 32.5641 68.3912 31.5931 69.9791C30.6222 71.567 29.2982 73.5078 29.1217 76.0661C28.9451 78.6244 30.0043 81.7121 30.0043 81.7121L30.9753 81.6238C30.9753 81.6238 29.6954 77.804 30.5781 75.228C31.5049 72.5374 32.873 70.6407 32.9613 70.5525C33.0496 70.4643 35.5652 71.1259 37.1981 70.9054C37.1981 70.9054 40.3758 78.2275 40.8171 81.6679C40.8171 81.6679 40.8171 81.8444 40.9936 82.1973C41.1702 82.5501 43.7652 77.8305 44.4802 75.8015C45.0098 74.3018 45.5836 70.5525 45.4953 70.1114C45.407 69.6703 45.054 69.6703 44.3478 71.3465C43.6417 73.0226 41.9646 77.6981 41.6998 77.9628C41.435 78.2275 39.7579 72.4933 39.4048 71.7876C39.0518 71.0818 39.0518 70.8172 39.0518 70.8172C39.0518 70.8172 41.6115 70.2614 43.9065 68.4353C46.5104 66.3622 47.9668 63.7597 48.9377 61.4661C49.9087 59.1724 50.5265 57.3198 50.5265 57.3198L48.8495 57.4963C48.8495 57.4963 46.9517 63.1863 43.7741 65.9211C40.5964 68.6558 38.787 69.2292 35.5211 68.7881C32.2552 68.3471 32.1228 63.3628 32.6082 61.3779C33.076 59.4547 34.6649 57.0905 37.1981 55.5555C39.8903 53.9234 45.407 52.115 45.9808 52.2473Z" fill="#0046EF"/>
<path d="M30.9695 82.5059C30.9695 82.5059 31.9404 86.6521 32.8231 87.2696C33.7058 87.8871 31.5873 87.4461 30.9695 87.7989C30.3516 88.1518 28.6745 88.4165 26.4678 93.0038C24.2611 97.5911 21.0835 104.384 21.0835 104.384C21.0835 104.384 24.5259 93.9742 27.7918 88.4165C31.0577 82.8587 30.3516 83.2116 30.9695 82.5059Z" fill="#E60D0D"/>
<path d="M41.3009 84.8881C41.3009 84.8881 41.3892 89.9165 40.8596 91.5926C40.3299 93.2688 38.6529 98.1208 38.3881 98.7383C38.1233 99.3558 38.6529 99.8851 39.1825 98.3854C39.7121 96.8857 40.5065 94.5038 41.0361 93.0923C41.5657 91.6809 41.7422 91.6809 41.8305 90.8869C41.9188 90.0929 41.9188 85.9467 41.8305 85.5056C41.7422 85.0645 41.654 84.3588 41.3009 84.8881Z" fill="#0046EF"/>
<path d="M41.649 95.8271L40.9429 97.5915C40.9429 97.5915 49.0635 99.9734 52.1529 99.3559C55.2422 98.7383 56.2132 98.209 56.2132 98.209C56.2132 98.209 48.1367 97.9885 41.649 95.8271Z" fill="#0046EF"/>
<path d="M53.7903 32.8838C54.3287 33.5366 54.8495 34.2071 55.3526 34.8775C55.6086 35.2127 55.8557 35.5568 56.1029 35.892L56.8443 36.9153L57.5681 37.9475C57.8065 38.2915 58.0448 38.6356 58.2831 38.9885L58.9892 40.0383L59.3423 40.5587L59.5188 40.8234C59.5806 40.9116 59.6424 40.991 59.7042 41.0792C59.6248 41.0087 59.2277 41.4144 59.1836 41.3262L58.9629 41.0174C58.8042 40.7969 58.7422 40.7086 58.6098 40.4881L58.2831 40.0383C58.0802 39.6941 57.9625 39.5618 57.8154 39.3413C57.5506 38.9443 57.4182 38.7678 57.1976 38.415L56.4031 37.3123L55.6087 36.2095C55.3704 35.8567 55.088 35.5038 54.8585 35.1509C54.3995 34.454 53.7903 33.563 53.7903 32.8838Z" fill="#FDA8A2"/>
<path d="M32.3504 24.181C31.0264 26.2276 30.6645 27.1363 30.7527 28.1596L30.7881 28.6889L30.8675 28.0714C31.0087 26.9863 31.3353 26.2276 32.368 24.5338C33.1978 23.1841 33.5155 22.7783 34.1069 22.3019C34.8748 21.6844 36.0047 21.2345 36.8256 21.2168C37.6023 21.1904 37.6464 21.2786 37.2051 22.0461C36.852 22.6636 36.0488 24.7897 36.0929 24.9837C36.1018 25.019 36.3489 25.1073 36.649 25.1866C37.62 25.4337 39.35 26.1482 40.1886 26.6422C41.7156 27.5244 42.969 28.883 44.496 31.2825C45.5287 32.8881 45.467 32.844 45.4581 32.0853C45.4493 31.0708 45.0168 27.1539 44.955 26.5364C44.9285 26.3247 44.9285 26.1129 44.9373 25.91C44.9373 25.4248 44.8932 25.3807 45.0433 24.9926C45.0609 24.9396 45.0874 24.8779 45.1051 24.825C45.2639 24.3398 45.7406 23.8987 45.8995 23.7134C46.6762 22.8401 48.1944 22.9194 49.3419 23.9075C50.507 24.922 50.8071 25.9453 50.5865 28.1419C50.3835 30.0474 49.7568 31.3178 48.6269 32.0588C48.062 32.4382 47.9473 32.3676 47.7619 31.5824C47.656 31.1413 47.6295 31.1061 47.5854 31.3707C47.5677 31.5472 47.6825 32.5705 47.8678 33.6732C48.3886 36.8049 48.265 36.5972 46.9763 37.9204C45.4493 39.4819 44.496 40.4444 42.1009 42.2039C39.7058 43.9634 39.0322 44.2986 38.3261 44.6426C38.079 44.7661 37.8142 44.8632 37.5405 44.9073C37.108 44.9779 36.6578 44.4887 36.5343 43.6153C36.2695 42.645 36.5922 42.7043 36.0215 42.2039C34.9399 41.2554 34.4216 39.871 34.4216 39.871C34.4216 39.871 34.0668 39.3749 33.9384 39.0121C33.7738 38.547 33.4626 37.7842 33.7892 37.7577C34.4512 37.7048 34.8925 37.3695 34.8042 36.9902C34.7601 36.7961 34.7248 36.7961 34.4776 36.9461C34.3099 37.0696 34.1422 37.1049 34.0451 37.0519C33.8245 36.9461 33.2093 37.3528 32.7446 37.5773C32.6797 37.6174 32.6323 37.6334 32.568 37.6655C32.4798 37.7096 32.4445 37.74 32.1708 37.7577C32.0649 37.7665 31.9678 37.7136 31.9237 37.6165C31.8442 37.4401 31.6412 37.2421 31.6854 35.7247C31.6412 33.4488 31.5207 32.9499 31.2471 32.5794C30.9294 32.1206 30.6998 32.1294 30.3467 31.8912C29.8171 31.6265 29.8612 31.6442 29.8171 30.4797C29.8083 29.9945 29.8171 29.3329 29.8171 28.5389C29.7465 27.8596 29.8259 27.1804 29.8171 27.0392C29.7203 25.4915 31.0352 24.4985 31.8296 23.5458C32.165 23.1488 32.5358 22.7695 32.9153 22.4166C33.8421 21.5609 33.6656 22.1255 32.3504 24.181Z" fill="#FDA8A2"/>
<mask id="path-77-inside-1_60_2911" fill="white">
<path d="M47.0591 24.806C46.6156 25.2554 46.4425 25.8286 46.5523 26.4879C46.6297 26.9295 46.6964 27.1041 46.8729 27.2171C47.0516 27.341 47.0759 27.3912 46.9771 27.4501C46.8808 27.5192 46.9425 27.6278 47.2096 27.9203C47.613 28.348 47.8138 29.0965 47.707 29.7989C47.6294 30.2561 47.7447 30.3523 48.0946 30.1179C48.2788 29.9927 48.3267 29.8679 48.2838 29.6085C48.2271 29.2946 48.521 28.389 48.9025 27.6505L49.0466 27.3669L48.3436 26.9246C47.5609 26.4357 47.5161 26.2583 48.1242 25.967L48.4392 25.8196L48.1401 25.6255C47.8304 25.4334 47.8304 25.4334 48.0147 25.2627C48.2281 25.0738 48.4656 25.0701 48.9785 25.2557C49.3689 25.405 49.3821 25.3677 49.0505 25.0012C48.4473 24.3204 47.6191 24.2369 47.0591 24.806Z"/>
</mask>
<path d="M47.0591 24.806C46.6156 25.2554 46.4425 25.8286 46.5523 26.4879C46.6297 26.9295 46.6964 27.1041 46.8729 27.2171C47.0516 27.341 47.0759 27.3912 46.9771 27.4501C46.8808 27.5192 46.9425 27.6278 47.2096 27.9203C47.613 28.348 47.8138 29.0965 47.707 29.7989C47.6294 30.2561 47.7447 30.3523 48.0946 30.1179C48.2788 29.9927 48.3267 29.8679 48.2838 29.6085C48.2271 29.2946 48.521 28.389 48.9025 27.6505L49.0466 27.3669L48.3436 26.9246C47.5609 26.4357 47.5161 26.2583 48.1242 25.967L48.4392 25.8196L48.1401 25.6255C47.8304 25.4334 47.8304 25.4334 48.0147 25.2627C48.2281 25.0738 48.4656 25.0701 48.9785 25.2557C49.3689 25.405 49.3821 25.3677 49.0505 25.0012C48.4473 24.3204 47.6191 24.2369 47.0591 24.806Z" fill="#090808"/>
<path d="M47.0591 24.806L47.1091 24.8554L47.1092 24.8553L47.0591 24.806ZM46.5523 26.4879L46.4829 26.4995L46.483 26.5001L46.5523 26.4879ZM46.8729 27.2171L46.913 27.1593L46.9108 27.1579L46.8729 27.2171ZM46.9771 27.4501L46.9409 27.3895L46.936 27.393L46.9771 27.4501ZM47.2096 27.9203L47.1577 27.9677L47.1585 27.9685L47.2096 27.9203ZM47.707 29.7989L47.7763 29.8107L47.7765 29.8095L47.707 29.7989ZM48.0946 30.1179L48.1337 30.1763L48.1341 30.176L48.0946 30.1179ZM48.2838 29.6085L48.3532 29.597L48.353 29.596L48.2838 29.6085ZM48.9025 27.6505L48.9649 27.6828L48.9651 27.6824L48.9025 27.6505ZM49.0466 27.3669L49.1093 27.3987L49.1384 27.3416L49.0841 27.3074L49.0466 27.3669ZM48.3436 26.9246L48.381 26.8651L48.3808 26.865L48.3436 26.9246ZM48.1242 25.967L48.0944 25.9033L48.0938 25.9036L48.1242 25.967ZM48.4392 25.8196L48.469 25.8833L48.5837 25.8296L48.4775 25.7607L48.4392 25.8196ZM48.1401 25.6255L48.1783 25.5665L48.1771 25.5657L48.1401 25.6255ZM48.0147 25.2627L47.9681 25.2101L47.9669 25.2112L48.0147 25.2627ZM48.9785 25.2557L49.0035 25.1901L49.0024 25.1896L48.9785 25.2557ZM49.0505 25.0012L48.9979 25.0479L48.9984 25.0484L49.0505 25.0012ZM47.009 24.7566C46.5487 25.2231 46.3697 25.8194 46.4829 26.4995L46.6216 26.4764C46.5153 25.8378 46.6825 25.2877 47.1091 24.8554L47.009 24.7566ZM46.483 26.5001C46.5599 26.9389 46.6296 27.1448 46.835 27.2763L46.9108 27.1579C46.7633 27.0635 46.6994 26.9201 46.6215 26.4758L46.483 26.5001ZM46.8329 27.2749C46.8768 27.3053 46.909 27.3298 46.9317 27.35C46.9555 27.3712 46.9632 27.383 46.9651 27.387C46.9655 27.388 46.9643 27.3856 46.9644 27.3808C46.9646 27.3758 46.9662 27.372 46.9671 27.3705C46.9675 27.3698 46.9631 27.3766 46.9411 27.3897L47.013 27.5105C47.0404 27.4942 47.0701 27.4726 47.0881 27.4421C47.1098 27.4055 47.1096 27.3654 47.0931 27.329C47.0789 27.2976 47.0532 27.2699 47.0253 27.245C46.9962 27.2191 46.9584 27.1909 46.913 27.1593L46.8329 27.2749ZM46.936 27.393C46.9015 27.4178 46.8728 27.4527 46.8657 27.5014C46.8591 27.5467 46.8732 27.5915 46.8944 27.6333C46.9363 27.7156 47.0254 27.8228 47.1577 27.9677L47.2615 27.8729C47.1267 27.7254 47.0515 27.632 47.0197 27.5696C47.0042 27.539 47.0043 27.5254 47.0048 27.5218C47.0048 27.5215 47.0045 27.517 47.0181 27.5072L46.936 27.393ZM47.1585 27.9685C47.5441 28.3773 47.7418 29.1026 47.6375 29.7884L47.7765 29.8095C47.8858 29.0903 47.682 28.3186 47.2608 27.8721L47.1585 27.9685ZM47.6377 29.7872C47.6179 29.9037 47.6095 30.002 47.6155 30.08C47.6214 30.1556 47.6419 30.2275 47.6957 30.272C47.7529 30.3191 47.8258 30.3186 47.8948 30.2988C47.9641 30.279 48.0441 30.2363 48.1337 30.1763L48.0554 30.0595C47.9701 30.1167 47.9045 30.1499 47.8562 30.1637C47.8076 30.1775 47.791 30.1683 47.7852 30.1636C47.7762 30.1561 47.7606 30.1329 47.7557 30.0692C47.751 30.008 47.7573 29.9228 47.7763 29.8107L47.6377 29.7872ZM48.1341 30.176C48.2327 30.109 48.3035 30.0362 48.3402 29.9381C48.3762 29.8418 48.3754 29.7313 48.3532 29.597L48.2145 29.6199C48.2352 29.7451 48.2318 29.8266 48.2085 29.8889C48.1859 29.9494 48.1406 30.0016 48.055 30.0598L48.1341 30.176ZM48.353 29.596C48.3412 29.5305 48.3469 29.4253 48.3721 29.2866C48.3969 29.1498 48.4394 28.9872 48.4958 28.8101C48.6087 28.4559 48.776 28.0485 48.9649 27.6828L48.84 27.6183C48.6475 27.9909 48.4771 28.4056 48.3619 28.7674C48.3042 28.9482 48.26 29.117 48.2338 29.2614C48.2079 29.4038 48.1981 29.5296 48.2146 29.621L48.353 29.596ZM48.9651 27.6824L49.1093 27.3987L48.984 27.335L48.8398 27.6187L48.9651 27.6824ZM49.0841 27.3074L48.381 26.8651L48.3062 26.9841L49.0092 27.4264L49.0841 27.3074ZM48.3808 26.865C48.1858 26.7432 48.04 26.6427 47.9394 26.5564C47.8365 26.4681 47.7919 26.4035 47.7808 26.3558C47.772 26.3178 47.7818 26.277 47.8402 26.2219C47.9008 26.1646 48.0035 26.1027 48.1546 26.0303L48.0938 25.9036C47.9409 25.9769 47.8211 26.0464 47.7436 26.1196C47.6638 26.195 47.6197 26.2838 47.6439 26.3876C47.6658 26.4818 47.7411 26.5714 47.8478 26.663C47.9568 26.7566 48.1101 26.8616 48.3064 26.9842L48.3808 26.865ZM48.154 26.0306L48.469 25.8833L48.4094 25.7559L48.0944 25.9033L48.154 26.0306ZM48.4775 25.7607L48.1783 25.5665L48.1018 25.6844L48.4009 25.8786L48.4775 25.7607ZM48.1771 25.5657C48.0987 25.5171 48.0433 25.4827 48.0053 25.455C47.964 25.4249 47.9585 25.4128 47.9586 25.4131C47.9625 25.4245 47.9525 25.4281 47.9684 25.4077C47.9851 25.3862 48.0145 25.3588 48.0625 25.3143L47.9669 25.2112C47.9228 25.252 47.883 25.2886 47.8576 25.3212C47.8313 25.3547 47.8061 25.4024 47.8257 25.459C47.8415 25.5047 47.8825 25.5393 47.9225 25.5685C47.9658 25.6002 48.0266 25.6378 48.103 25.6852L48.1771 25.5657ZM48.0613 25.3153C48.1562 25.2313 48.2529 25.1902 48.3849 25.189C48.522 25.1878 48.6997 25.2296 48.9545 25.3218L49.0024 25.1896C48.7444 25.0963 48.5469 25.047 48.3836 25.0485C48.2153 25.05 48.0865 25.1052 47.9681 25.2101L48.0613 25.3153ZM48.9534 25.3214C49.0508 25.3586 49.129 25.3859 49.1853 25.3989C49.2125 25.4052 49.2413 25.4098 49.267 25.4074C49.2928 25.4049 49.3381 25.3916 49.3527 25.3416C49.3635 25.3049 49.3488 25.2702 49.3395 25.2512C49.3281 25.228 49.311 25.2022 49.2904 25.1746C49.2489 25.119 49.1856 25.0457 49.1026 24.9541L48.9984 25.0484C49.0813 25.14 49.1406 25.2088 49.1777 25.2586C49.1964 25.2837 49.2076 25.3014 49.2133 25.3131C49.2211 25.329 49.2124 25.3206 49.2178 25.3021C49.2215 25.2894 49.23 25.279 49.24 25.2728C49.2443 25.2702 49.248 25.2688 49.2502 25.2682C49.2513 25.2679 49.2522 25.2677 49.2527 25.2676C49.2533 25.2675 49.2536 25.2674 49.2536 25.2674C49.2536 25.2674 49.2534 25.2675 49.2529 25.2675C49.2524 25.2675 49.2518 25.2675 49.2509 25.2675C49.249 25.2674 49.2465 25.2672 49.2433 25.2668C49.2366 25.2661 49.2279 25.2645 49.2169 25.262C49.1712 25.2514 49.1014 25.2275 49.0035 25.1901L48.9534 25.3214ZM49.1031 24.9546C48.7921 24.6036 48.4187 24.4019 48.0455 24.365C47.6711 24.3279 47.3033 24.4576 47.009 24.7567L47.1092 24.8553C47.3749 24.5853 47.7012 24.4722 48.0317 24.5048C48.3633 24.5376 48.7057 24.7181 48.9979 25.0478L49.1031 24.9546Z" fill="#090808" mask="url(#path-77-inside-1_60_2911)"/>
<path d="M41.6429 33.7711C41.0612 36.7846 40.7161 38.9821 40.7346 39.6358C40.7346 41.0155 41.8062 35.5681 42.2607 31.7729C42.4964 29.9389 42.206 30.8652 41.6429 33.7711Z" fill="#090808"/>
<path d="M35.7654 39.1344C35.2319 39.4299 34.9589 39.6123 34.3367 39.813C34.3068 39.9921 34.6894 40.6068 34.7318 40.5667C35.6372 40.0427 36.0125 39.8116 36.7595 39.2626C37.1008 39.0118 37.2164 38.9451 37.4298 38.7818C37.9144 38.4109 37.8652 38.3274 37.7818 38.2507C37.3385 38.077 36.1523 38.9201 35.7654 39.1344Z" fill="#090808"/>
<path d="M35.7969 41.9128C35.45 42.1763 35.7501 42.5286 35.9735 42.4774C36.1969 42.4263 36.753 41.8136 36.7121 41.6348C36.6564 41.3921 36.144 41.6492 35.7969 41.9128Z" fill="#090808"/>
<path d="M41.5767 43.4873L42.9889 42.4287C42.9889 43.205 44.4454 44.7077 44.7102 44.8988C44.2835 45.1341 43.3861 45.5781 43.2096 45.4722C43.0331 45.3664 41.8268 43.8549 41.5767 43.4873Z" fill="#FDA8A2"/>
<path d="M41.6125 14.7179C43.0196 14.9253 43.8587 15.1693 44.7878 15.6294C45.2496 15.8641 45.6089 16.0628 45.5909 16.0808C45.5729 16.0988 45.2482 16.0535 44.8598 15.9815C43.8226 15.7828 41.7926 15.8008 40.8814 16.0175C39.5103 16.3515 38.3193 16.8657 37.6701 17.4072C37.5435 17.5158 37.6239 17.4257 37.8502 17.209C38.3826 16.7036 39.4291 15.9902 40.1421 15.6655L40.7013 15.404H40.3494C39.5644 15.3855 37.9134 16.0263 36.9935 16.7036L36.5511 17.027L37.0023 16.6112C37.5888 16.0789 38.6186 15.4289 39.2217 15.2122L39.6997 15.0501L39.3658 14.9868C38.5807 14.8334 37.0656 15.1402 36.1272 15.6364C34.6568 16.4037 33.6644 18.2628 33.9618 19.689C34.0791 20.2485 34.0251 20.3205 33.8717 19.8063C33.8085 19.5897 33.7637 19.0671 33.7637 18.6421C33.7637 17.956 33.7905 17.8027 34.0523 17.2612C34.6928 15.9436 35.8838 15.1222 37.7241 14.7161C38.4727 14.5553 40.4935 14.5553 41.6125 14.7179Z" fill="#0046EF"/>
<path d="M34.4408 15.5218C33.2255 16.1351 32.2259 17.5335 31.9739 18.9854C31.8748 19.5539 31.8817 19.7165 32.0199 20.2397C32.1098 20.5731 32.2808 21.0063 32.4071 21.2049L32.632 21.5656L32.3554 21.2501C31.878 20.7089 31.6983 20.2757 31.6531 19.5179C31.572 18.0743 32.3011 16.6039 33.5168 15.774C34.0749 15.3861 34.462 15.2323 34.8671 15.2143C34.998 15.206 34.8459 15.3233 34.4408 15.5218Z" fill="#0046EF"/>
<path d="M30.3912 17.6413C28.9059 19.5499 28.7754 21.1696 29.9696 23.043L30.2324 23.4609L29.9495 23.2892C29.5186 23.0398 28.9391 22.1836 28.7744 21.564C28.4886 20.4871 28.8412 19.1523 29.6724 18.0664C30.0329 17.6089 30.8509 16.8379 30.9605 16.8596C30.9783 16.8641 30.7159 17.2159 30.3912 17.6413Z" fill="#0046EF"/>
<path d="M27.5762 20.6551C26.9124 22.4303 27.1942 23.6723 28.5263 24.794L28.8208 25.0451L28.569 24.9828C28.1883 24.8972 27.5543 24.3923 27.2859 23.9675C26.8199 23.2289 26.7709 22.148 27.1381 21.1413C27.3006 20.7147 27.7318 19.9466 27.8189 19.9373C27.8332 19.9365 27.7194 20.261 27.5762 20.6551Z" fill="#0046EF"/>
<path d="M48.0898 18.7411C49.1193 19.074 50.2183 20.2797 50.7749 21.6766C51.1004 22.5272 51.4673 24.1778 51.6105 25.4246L51.7081 26.3703L51.514 25.4169C51.2818 24.2388 50.9341 23.208 50.4198 22.075C49.7524 20.634 48.9759 19.6278 48.0222 18.9793C47.406 18.5574 47.4112 18.5279 48.0898 18.7411Z" fill="#0046EF"/>
<path d="M42.3208 24.6594C42.4372 24.359 42.5792 24.0691 42.7452 23.793C42.9099 23.5141 43.0947 23.2475 43.2981 22.9954C43.7037 22.4817 44.1983 22.0449 44.7584 21.7057C45.3264 21.3651 45.9711 21.1728 46.6331 21.1468C46.6741 21.1459 46.7156 21.1419 46.7562 21.1422L46.879 21.1466C46.9611 21.1507 47.0428 21.1481 47.1234 21.1589C47.2855 21.1749 47.4465 21.2004 47.6056 21.2354C47.9215 21.3047 48.2289 21.4084 48.5222 21.5446C48.2155 21.4576 47.9026 21.3945 47.5862 21.3557C47.2744 21.3152 46.9592 21.3098 46.6462 21.3397C46.3357 21.3674 46.0297 21.4324 45.7349 21.5335C45.4388 21.6305 45.1546 21.7608 44.888 21.922C44.6187 22.0812 44.3636 22.2634 44.1256 22.4665C43.8852 22.6699 43.6591 22.8896 43.4488 23.124C43.2363 23.3592 43.0364 23.6054 42.85 23.8618C42.6599 24.1183 42.4833 24.3846 42.3208 24.6594Z" fill="#0046EF"/>
<path d="M40.5017 25.0461C40.4624 24.7264 40.4507 24.4039 40.4667 24.0821C40.4801 23.7585 40.5171 23.4364 40.5773 23.1181C40.6923 22.4739 40.922 21.8554 41.2555 21.2923C41.5954 20.7239 42.073 20.2503 42.6443 19.9151C42.68 19.8949 42.7146 19.8718 42.7506 19.8529L42.8609 19.7988C42.9353 19.7637 43.0061 19.7229 43.0822 19.6944C43.2327 19.6321 43.3867 19.5786 43.5434 19.5343C43.8547 19.4464 44.1746 19.3928 44.4975 19.3745C44.1861 19.4425 43.8804 19.5345 43.5832 19.6496C43.2892 19.7609 43.0087 19.9049 42.747 20.0789C42.4863 20.2498 42.2473 20.4515 42.0351 20.6797C41.8198 20.9049 41.6309 21.1539 41.472 21.4217C41.3097 21.6892 41.1709 21.9701 41.0571 22.2614C40.9412 22.5542 40.8456 22.8545 40.771 23.1604C40.6946 23.468 40.6347 23.7794 40.5915 24.0933C40.5451 24.4091 40.5152 24.7272 40.5017 25.0461Z" fill="#0046EF"/>
<path d="M33.0193 28.3855C32.9363 28.4776 32.2973 29.2961 31.5957 30.2004C30.9073 31.1118 30.2519 31.913 30.1494 31.9778C29.8825 32.1598 30.1826 32.4121 30.6667 32.4301C30.9693 32.4372 31.1187 32.3802 31.4107 32.135L31.7778 31.8445L32.3883 32.0571C32.7253 32.1758 33.2304 32.2985 33.5189 32.3321C34.2 32.4119 34.1655 32.4447 35.6172 30.7212C36.1332 30.1183 36.4181 29.8863 36.9901 29.6107L37.4228 29.389L36.5985 29.3865C35.9189 29.3841 35.6451 29.4348 34.9692 29.6979C34.531 29.8658 33.9176 30.1875 33.6265 30.3991C32.8829 30.9496 32.7079 30.8145 33.2897 30.1358C34.0515 29.2463 34.6346 28.7895 35.543 28.3772C36.0124 28.1664 36.5147 27.99 36.6359 27.9861C36.7642 27.9689 36.6907 27.9471 36.4694 27.915C35.8524 27.8267 34.063 27.9428 33.585 28.0895C33.3613 28.1582 33.1023 28.2933 33.0193 28.3855ZM35.3203 30.5991C35.1016 30.8444 34.952 30.9552 34.7339 31.0702C34.1596 31.373 34.1151 30.8512 34.6325 30.4701C35.2492 30.0141 35.6565 30.1661 35.3203 30.5991Z" fill="#080808"/>
<path d="M21.5905 105.007L24.1085 104.755L23.853 111.192C23.7606 112.561 23.7713 113.461 23.8851 113.891C24.0164 114.319 24.1773 114.603 24.3679 114.743C24.5761 114.881 24.855 114.933 25.2047 114.898C26.149 114.803 26.6638 114.036 26.7491 112.597C26.7892 112.116 26.8293 111.547 26.8694 110.889L27.0986 104.455L29.5904 104.205L29.3349 110.642C29.2655 112.768 28.9161 114.305 28.2868 115.251C27.6593 116.215 26.6111 116.77 25.1423 116.917C23.7084 117.061 22.6932 116.712 22.0967 115.871C21.5002 115.031 21.2376 113.556 21.3087 111.447L21.5905 105.007Z" fill="white"/>
<path d="M35.8906 103.362C36.73 103.278 37.3586 103.294 37.7766 103.411C38.1946 103.528 38.4866 103.623 38.6527 103.694C38.8364 103.764 38.9737 103.812 39.0646 103.838L38.3804 105.735L38.0211 105.585C37.2691 105.308 36.622 105.196 36.08 105.25C35.6253 105.296 35.2389 105.493 34.9207 105.843C34.6358 106.172 34.5065 106.468 34.5327 106.73C34.5171 107.102 34.6099 107.411 34.811 107.656C35.0297 107.899 35.299 108.119 35.6191 108.317C35.9391 108.514 36.2854 108.709 36.6579 108.901C37.0479 109.092 37.3977 109.322 37.7073 109.591C38.4751 110.203 38.832 111.032 38.778 112.08C38.7416 113.126 38.3789 114.001 37.6901 114.706C37.0013 115.411 36.0012 115.829 34.6897 115.96C33.6231 116.067 32.6744 115.941 31.8437 115.583C31.6758 115.494 31.5368 115.429 31.4266 115.387L32.0845 113.493C32.1754 113.519 32.2952 113.569 32.4439 113.642C32.61 113.714 32.7928 113.775 32.9921 113.826C33.5028 113.986 33.9679 114.046 34.3876 114.004C35.157 113.926 35.7078 113.606 36.0399 113.043C36.1465 112.874 36.2033 112.647 36.2102 112.364C36.2329 112.061 36.1366 111.806 35.9215 111.598C35.7046 111.372 35.437 111.17 35.1187 110.99C34.7987 110.792 34.4524 110.597 34.0799 110.405C33.7056 110.195 33.3549 109.957 33.0279 109.689C32.2775 109.075 31.9206 108.246 31.9571 107.2C31.9918 106.137 32.3544 105.262 33.045 104.574C33.7355 103.887 34.6841 103.483 35.8906 103.362Z" fill="white"/>
<path d="M49.2185 114.265L46.7267 114.515L46.9432 109.539L43.6908 109.865L43.5005 114.839L40.9825 115.091L41.4675 103.015L43.9855 102.762L43.7795 107.843L47.0057 107.52L47.1855 102.441L49.7035 102.189L49.2185 114.265Z" fill="white"/>
<path d="M54.0089 113.785L51.4909 114.038L51.9759 101.961L54.4939 101.709L54.0089 113.785Z" fill="white"/>
<path d="M65.1651 105.01L62.9923 111.878L61.2611 112.051C61.1981 111.775 61.0135 111.078 60.7072 109.961C60.3992 108.826 60.1883 108.044 60.0745 107.614C59.8259 106.544 59.6605 105.862 59.5782 105.57L58.7906 113.306L56.3513 113.55L57.9379 101.364L60.4034 101.116C60.4384 101.29 60.5102 101.565 60.6187 101.943C60.7255 102.303 60.8375 102.715 60.9547 103.181C61.0877 103.626 61.2251 104.116 61.3669 104.649C61.5087 105.183 61.6399 105.699 61.7607 106.199C61.8798 106.682 61.9865 107.131 62.0811 107.545C62.1756 107.959 62.2526 108.287 62.3121 108.529C62.3593 108.294 62.4493 107.958 62.582 107.521C62.7323 107.082 62.887 106.599 63.046 106.071C63.205 105.542 63.3806 105.004 63.5728 104.455C63.7633 103.888 63.9398 103.358 64.1023 102.865C64.2823 102.37 64.4325 101.931 64.5531 101.548C64.6894 101.146 64.7925 100.853 64.8624 100.669L67.328 100.422L67.9446 112.388L65.4004 112.643C65.3986 112.449 65.3871 112.159 65.3661 111.772C65.345 111.386 65.3283 110.955 65.3159 110.479C65.3193 109.984 65.3034 109.474 65.2683 108.947C65.2507 108.419 65.2349 107.909 65.2208 107.416C65.2066 106.923 65.196 106.464 65.1889 106.041C65.1801 105.601 65.1721 105.257 65.1651 105.01Z" fill="white"/>
<path d="M74.3551 102.076C74.2625 102.385 74.1603 102.775 74.0485 103.246C73.9367 103.716 73.8109 104.223 73.6711 104.767C73.5296 105.293 73.382 105.847 73.2283 106.428C73.0903 106.989 72.9426 107.542 72.7854 108.088L75.3558 107.83C75.2683 107.309 75.1711 106.78 75.0643 106.243C74.9558 105.689 74.8586 105.16 74.7728 104.657C74.6852 104.136 74.6012 103.649 74.5206 103.198C74.4401 102.747 74.3849 102.373 74.3551 102.076ZM72.9932 99.8544L76.0096 99.552L78.7771 111.302L76.1279 111.568L75.6841 109.519L72.353 109.853L71.7214 112.01L69.2034 112.262L72.9932 99.8544Z" fill="white"/>
<path d="M82.3756 98.9138L85.8266 106.118L85.8528 106.116C85.8772 106.007 85.8771 105.566 85.8525 104.791L86.1002 98.5405L88.3296 98.317L87.8447 110.393L85.6152 110.617L82.0829 103.394C82.0777 103.518 82.0786 103.704 82.0856 103.95C82.0927 104.197 82.084 104.462 82.0596 104.747L81.8382 110.995L79.6349 111.216L80.1199 99.14L82.3756 98.9138Z" fill="white"/>
<path d="M14.3549 93.9789C15.9749 93.8166 17.2941 93.8918 18.1008 94.1178C18.9074 94.3437 18.9018 94.3499 19.2562 94.5027C19.6549 94.6747 19.9451 94.8128 19.9451 94.8128L18.6247 98.4732L17.9311 98.1849C16.4797 97.6486 15.2309 97.4329 14.1847 97.5378C13.3073 97.6257 12.5615 98.0073 11.9474 98.6824C11.3975 99.317 11.1479 99.8875 11.1986 100.394C11.1684 101.113 11.3474 101.708 11.7357 102.181C12.1576 102.65 12.6775 103.075 13.2952 103.456C13.9129 103.837 14.5812 104.213 15.3002 104.584C16.0529 104.952 16.728 105.396 17.3254 105.915C18.8073 107.096 19.4962 108.697 19.392 110.719C19.3217 112.737 18.6218 114.426 17.2924 115.787C15.963 117.147 14.0327 117.954 11.5016 118.208C9.44295 118.414 7.61199 118.172 6.00874 117.48C5.68471 117.308 5.41637 117.182 5.20373 117.101L7.11504 113.575C7.29054 113.626 7.52175 113.722 7.80865 113.864C8.1293 114.002 8.48201 114.12 8.86678 114.218C9.85233 114.528 10.7501 114.642 11.56 114.561C13.045 114.412 14.1079 113.795 14.7489 112.708C14.9547 112.38 15.0643 111.943 15.0776 111.396C15.1214 110.813 14.9356 110.32 14.5204 109.918C14.1018 109.483 13.5854 109.092 12.971 108.744C12.3533 108.363 11.685 107.987 10.9661 107.616C10.2437 107.211 9.56696 106.75 8.93572 106.234C7.4876 105.05 6.79873 103.449 6.86912 101.431C6.93612 99.3786 7.63601 97.6893 8.96878 96.3626C10.3016 95.0359 12.0263 94.2124 14.3549 93.9789Z" fill="white"/>
<path d="M7.47706 129.91L7.67493 124.624L10.4869 124.334L10.4414 125.243L8.75421 125.417L8.70618 126.64L9.99167 126.508L9.96319 127.357L8.66622 127.491L8.61296 128.888L10.3231 128.712L10.3006 129.619L7.47706 129.91Z" fill="#FBEEE3"/>
<path d="M15.239 127.266C14.7539 128.337 14.4531 128.983 14.3366 129.204L13.0741 129.334L14.6295 126.529L13.3293 124.041L14.5804 123.912C14.6212 124.009 14.7087 124.22 14.8429 124.546C14.977 124.873 15.0796 125.118 15.1505 125.28C15.2214 125.443 15.2692 125.57 15.294 125.66C15.3463 125.492 15.4519 125.242 15.6109 124.908C15.8156 124.493 15.9924 124.107 16.1414 123.752L17.4039 123.622L15.9047 126.409L17.2749 128.901L15.9779 129.035C15.8809 128.843 15.7757 128.611 15.6624 128.336C15.5491 128.062 15.4566 127.839 15.3849 127.669C15.3132 127.498 15.2646 127.364 15.239 127.266Z" fill="#FBEEE3"/>
<path d="M21.7727 127.661C22.0864 127.628 22.3151 127.446 22.4588 127.114C22.6017 126.775 22.6814 126.31 22.6981 125.721C22.7215 125.123 22.6712 124.672 22.5471 124.368C22.4222 124.056 22.2067 123.916 21.9006 123.947C21.6022 123.978 21.3815 124.163 21.2386 124.503C21.095 124.834 21.0114 125.299 20.9879 125.897C20.9636 126.487 21.0101 126.939 21.1274 127.251C21.2439 127.556 21.459 127.693 21.7727 127.661ZM22.788 128.171C23.0243 128.363 23.306 128.508 23.6331 128.606L23.1234 129.401C22.8654 129.373 22.5493 129.232 22.175 128.976C22.0246 128.868 21.8784 128.725 21.7363 128.546C20.4125 128.682 19.7843 127.838 19.8516 126.014C19.8855 125.067 20.0828 124.355 20.4434 123.877C20.8041 123.399 21.3019 123.127 21.937 123.062C22.5798 122.996 23.0651 123.166 23.3932 123.573C23.7212 123.98 23.8683 124.657 23.8343 125.604C23.7852 126.854 23.4364 127.71 22.788 128.171Z" fill="#FBEEE3"/>
<path d="M26.3182 122.703L27.42 122.59L27.3159 125.408C27.2771 126.007 27.2828 126.401 27.3331 126.589C27.3911 126.776 27.4619 126.901 27.5455 126.962C27.6368 127.022 27.7589 127.044 27.9119 127.028C28.3251 126.986 28.5495 126.649 28.5852 126.019C28.6022 125.809 28.619 125.56 28.6358 125.272L28.7285 122.455L29.8188 122.343L29.7147 125.161C29.6868 126.091 29.5357 126.764 29.2614 127.179C28.9879 127.602 28.5298 127.846 27.887 127.912C27.2596 127.977 26.8148 127.826 26.5527 127.458C26.2906 127.091 26.1739 126.446 26.2025 125.522L26.3182 122.703Z" fill="#FBEEE3"/>
<path d="M33.4889 127.231L32.3871 127.344L32.5849 122.058L33.6868 121.944L33.4889 127.231Z" fill="#FBEEE3"/>
<path d="M38.1456 121.392C38.5129 121.355 38.7881 121.361 38.9711 121.412C39.1542 121.463 39.2822 121.503 39.355 121.535C39.4354 121.565 39.4956 121.586 39.5354 121.597L39.2382 122.428L39.0807 122.363C38.7513 122.243 38.4679 122.194 38.2307 122.219C38.0318 122.239 37.8629 122.326 37.724 122.48C37.5997 122.624 37.5434 122.754 37.5553 122.868C37.5488 123.031 37.5898 123.166 37.6782 123.273C37.7741 123.379 37.8923 123.475 38.0326 123.562C38.173 123.648 38.3248 123.733 38.488 123.816C38.659 123.899 38.8123 123.999 38.9482 124.117C39.285 124.384 39.4422 124.746 39.4198 125.205C39.4051 125.663 39.2474 126.046 38.9468 126.356C38.6461 126.665 38.2089 126.849 37.635 126.908C37.1682 126.956 36.7528 126.903 36.3888 126.747C36.3152 126.708 36.2543 126.679 36.206 126.661L36.4917 125.831C36.5315 125.843 36.584 125.864 36.6492 125.896C36.722 125.927 36.8021 125.954 36.8894 125.976C37.1131 126.046 37.3168 126.071 37.5004 126.052C37.8371 126.018 38.0778 125.877 38.2225 125.63C38.2689 125.556 38.2935 125.456 38.2962 125.332C38.3058 125.2 38.2633 125.088 38.1689 124.997C38.0737 124.899 37.9563 124.811 37.8168 124.732C37.6765 124.646 37.5247 124.561 37.3614 124.477C37.1973 124.386 37.0436 124.282 36.9001 124.165C36.5709 123.898 36.4137 123.535 36.4284 123.077C36.4424 122.612 36.6 122.228 36.9015 121.927C37.2029 121.625 37.6176 121.447 38.1456 121.392Z" fill="#FBEEE3"/>
<path d="M43.2118 126.23L42.11 126.343L42.3078 121.057L43.4097 120.943L43.2118 126.23Z" fill="#FBEEE3"/>
<path d="M48.7506 121.298L47.6947 121.406L47.5309 125.785L46.429 125.898L46.5814 121.521L45.514 121.631L45.5365 120.724L48.7962 120.388L48.7506 121.298Z" fill="#FBEEE3"/>
<path d="M51.4126 125.385L51.6104 120.098L54.4224 119.809L54.3769 120.718L52.6897 120.892L52.6417 122.115L53.9272 121.982L53.8987 122.832L52.6017 122.966L52.5484 124.363L54.2586 124.187L54.236 125.094L51.4126 125.385Z" fill="#FBEEE3"/>
<path d="M64.3732 119.689L63.3173 119.797L63.1534 124.176L62.0516 124.289L62.2039 119.912L61.1365 120.022L61.1591 119.115L64.4187 118.779L64.3732 119.689Z" fill="#FBEEE3"/>
<path d="M69.2779 119.311C69.2377 119.447 69.1935 119.617 69.1451 119.824C69.0967 120.03 69.0423 120.252 68.9817 120.49C68.9204 120.72 68.8565 120.963 68.7899 121.217C68.7301 121.463 68.6662 121.706 68.598 121.945L69.7228 121.829C69.6839 121.601 69.6407 121.369 69.5933 121.134C69.5451 120.892 69.502 120.661 69.4638 120.44C69.4249 120.212 69.3875 120 69.3517 119.802C69.3159 119.605 69.2913 119.441 69.2779 119.311ZM68.6792 118.34L69.9991 118.204L71.2244 123.344L70.0652 123.464L69.8685 122.568L68.4109 122.718L68.137 123.662L67.0351 123.776L68.6792 118.34Z" fill="#FBEEE3"/>
<path d="M75.2315 117.573C75.5988 117.535 75.874 117.541 76.0571 117.592C76.2401 117.643 76.3681 117.684 76.4409 117.715C76.5214 117.745 76.5815 117.766 76.6213 117.778L76.3241 118.609L76.1667 118.544C75.8372 118.423 75.5538 118.375 75.3166 118.399C75.1177 118.42 74.9488 118.507 74.8099 118.66C74.6856 118.804 74.6293 118.934 74.6412 119.049C74.6348 119.212 74.6757 119.347 74.7641 119.454C74.8601 119.56 74.9782 119.656 75.1185 119.742C75.2589 119.828 75.4107 119.913 75.5739 119.997C75.7449 120.079 75.8983 120.18 76.0341 120.297C76.3709 120.564 76.5281 120.927 76.5057 121.385C76.491 121.843 76.3333 122.227 76.0327 122.536C75.732 122.845 75.2948 123.03 74.7209 123.089C74.2541 123.137 73.8387 123.083 73.4747 122.927C73.4011 122.888 73.3402 122.86 73.2919 122.841L73.5776 122.012C73.6174 122.023 73.6699 122.045 73.7351 122.077C73.8079 122.108 73.888 122.134 73.9753 122.156C74.199 122.226 74.4027 122.251 74.5863 122.233C74.923 122.198 75.1637 122.057 75.3084 121.81C75.3548 121.736 75.3794 121.637 75.3821 121.513C75.3917 121.38 75.3492 121.269 75.2548 121.178C75.1596 121.079 75.0423 120.991 74.9027 120.912C74.7624 120.826 74.6106 120.741 74.4473 120.658C74.2832 120.566 74.1295 120.462 73.986 120.346C73.6568 120.078 73.4996 119.715 73.5143 119.258C73.5283 118.792 73.686 118.409 73.9874 118.107C74.2888 117.805 74.7035 117.627 75.2315 117.573Z" fill="#FBEEE3"/>
<path d="M81.9881 117.874L80.9321 117.983L80.7683 122.361L79.6665 122.475L79.8188 118.098L78.7514 118.208L78.774 117.301L82.0336 116.965L81.9881 117.874Z" fill="#FBEEE3"/>
<path d="M84.65 121.962L84.8479 116.675L87.6599 116.385L87.6144 117.295L85.9271 117.469L85.8791 118.692L87.1646 118.559L87.1361 119.409L85.8391 119.542L85.7859 120.94L87.496 120.764L87.4735 121.671L84.65 121.962Z" fill="#FBEEE3"/>
<defs>
<filter id="filter0_f_60_2911" x="0.511145" y="0.349768" width="103.068" height="101.922" filterUnits="userSpaceOnUse" color-interpolation-filters="sRGB">
<feFlood flood-opacity="0" result="BackgroundImageFix"/>
<feBlend mode="normal" in="SourceGraphic" in2="BackgroundImageFix" result="shape"/>
<feGaussianBlur stdDeviation="8.78654" result="effect1_foregroundBlur_60_2911"/>
</filter>
<linearGradient id="paint0_linear_60_2911" x1="42.5258" y1="8.74741" x2="60.6488" y2="8.74741" gradientUnits="userSpaceOnUse">
<stop offset="0.00454023" stop-color="#0A0A0A"/>
<stop offset="0.0722888" stop-color="#E70F0D"/>
<stop offset="0.513257" stop-color="#E70F0D"/>
<stop offset="0.927083" stop-color="#E70F0D"/>
<stop offset="1" stop-color="#0A0A0A"/>
</linearGradient>
<linearGradient id="paint1_linear_60_2911" x1="10.537" y1="37.9633" x2="92.4727" y2="37.9633" gradientUnits="userSpaceOnUse">
<stop offset="0.00454023" stop-color="#0A0A0A"/>
<stop offset="0.0722888" stop-color="#E70F0D"/>
<stop offset="0.513257" stop-color="#E70F0D"/>
<stop offset="0.927083" stop-color="#E70F0D"/>
<stop offset="1" stop-color="#0A0A0A"/>
</linearGradient>
<linearGradient id="paint2_linear_60_2911" x1="35.9583" y1="12.391" x2="65.9501" y2="12.391" gradientUnits="userSpaceOnUse">
<stop offset="0.00454023" stop-color="#0A0A0A"/>
<stop offset="0.0722888" stop-color="#E70F0D"/>
<stop offset="0.513257" stop-color="#E70F0D"/>
<stop offset="0.927083" stop-color="#E70F0D"/>
<stop offset="1" stop-color="#0A0A0A"/>
</linearGradient>
<linearGradient id="paint3_linear_60_2911" x1="36.1357" y1="10.5375" x2="66.1187" y2="10.5375" gradientUnits="userSpaceOnUse">
<stop offset="0.00454023" stop-color="#0A0A0A"/>
<stop offset="0.0722888" stop-color="#E70F0D"/>
<stop offset="0.513257" stop-color="#E70F0D"/>
<stop offset="0.927083" stop-color="#E70F0D"/>
<stop offset="1" stop-color="#0A0A0A"/>
</linearGradient>
<linearGradient id="paint4_linear_60_2911" x1="32.4175" y1="13.9965" x2="69.6852" y2="13.9965" gradientUnits="userSpaceOnUse">
<stop offset="0.00454023" stop-color="#0A0A0A"/>
<stop offset="0.0722888" stop-color="#E70F0D"/>
<stop offset="0.513257" stop-color="#E70F0D"/>
<stop offset="0.927083" stop-color="#E70F0D"/>
<stop offset="1" stop-color="#0A0A0A"/>
</linearGradient>
<linearGradient id="paint5_linear_60_2911" x1="29.3118" y1="15.5931" x2="72.8515" y2="15.5931" gradientUnits="userSpaceOnUse">
<stop offset="0.00454023" stop-color="#0A0A0A"/>
<stop offset="0.0722888" stop-color="#E70F0D"/>
<stop offset="0.513257" stop-color="#E70F0D"/>
<stop offset="0.927083" stop-color="#E70F0D"/>
<stop offset="1" stop-color="#0A0A0A"/>
</linearGradient>
<linearGradient id="paint6_linear_60_2911" x1="26.616" y1="17.1898" x2="75.406" y2="17.1898" gradientUnits="userSpaceOnUse">
<stop offset="0.00454023" stop-color="#0A0A0A"/>
<stop offset="0.0722888" stop-color="#E70F0D"/>
<stop offset="0.513257" stop-color="#E70F0D"/>
<stop offset="0.927083" stop-color="#E70F0D"/>
<stop offset="1" stop-color="#0A0A0A"/>
</linearGradient>
<linearGradient id="paint7_linear_60_2911" x1="24.4389" y1="18.7855" x2="77.8841" y2="18.7855" gradientUnits="userSpaceOnUse">
<stop offset="0.00454023" stop-color="#0A0A0A"/>
<stop offset="0.0722888" stop-color="#E70F0D"/>
<stop offset="0.513257" stop-color="#E70F0D"/>
<stop offset="0.927083" stop-color="#E70F0D"/>
<stop offset="1" stop-color="#0A0A0A"/>
</linearGradient>
<linearGradient id="paint8_linear_60_2911" x1="22.7694" y1="20.3822" x2="79.5194" y2="20.3822" gradientUnits="userSpaceOnUse">
<stop offset="0.00454023" stop-color="#0A0A0A"/>
<stop offset="0.0722888" stop-color="#E70F0D"/>
<stop offset="0.513257" stop-color="#E70F0D"/>
<stop offset="0.927083" stop-color="#E70F0D"/>
<stop offset="1" stop-color="#0A0A0A"/>
</linearGradient>
<linearGradient id="paint9_linear_60_2911" x1="20.8285" y1="21.9887" x2="81.4785" y2="21.9887" gradientUnits="userSpaceOnUse">
<stop offset="0.00454023" stop-color="#0A0A0A"/>
<stop offset="0.0722888" stop-color="#E70F0D"/>
<stop offset="0.513257" stop-color="#E70F0D"/>
<stop offset="0.927083" stop-color="#E70F0D"/>
<stop offset="1" stop-color="#0A0A0A"/>
</linearGradient>
<linearGradient id="paint10_linear_60_2911" x1="18.8879" y1="23.5834" x2="83.5179" y2="23.5834" gradientUnits="userSpaceOnUse">
<stop offset="0.00454023" stop-color="#0A0A0A"/>
<stop offset="0.0722888" stop-color="#E70F0D"/>
<stop offset="0.513257" stop-color="#E70F0D"/>
<stop offset="0.927083" stop-color="#E70F0D"/>
<stop offset="1" stop-color="#0A0A0A"/>
</linearGradient>
<linearGradient id="paint11_linear_60_2911" x1="17.5522" y1="25.181" x2="84.723" y2="25.181" gradientUnits="userSpaceOnUse">
<stop offset="0.00454023" stop-color="#0A0A0A"/>
<stop offset="0.0722888" stop-color="#E70F0D"/>
<stop offset="0.513257" stop-color="#E70F0D"/>
<stop offset="0.927083" stop-color="#E70F0D"/>
<stop offset="1" stop-color="#0A0A0A"/>
</linearGradient>
<linearGradient id="paint12_linear_60_2911" x1="16.3766" y1="26.7787" x2="86.328" y2="26.7787" gradientUnits="userSpaceOnUse">
<stop offset="0.00454023" stop-color="#0A0A0A"/>
<stop offset="0.0722888" stop-color="#E70F0D"/>
<stop offset="0.513257" stop-color="#E70F0D"/>
<stop offset="0.927083" stop-color="#E70F0D"/>
<stop offset="1" stop-color="#0A0A0A"/>
</linearGradient>
<linearGradient id="paint13_linear_60_2911" x1="15.2845" y1="28.3734" x2="87.5457" y2="28.3734" gradientUnits="userSpaceOnUse">
<stop offset="0.00454023" stop-color="#0A0A0A"/>
<stop offset="0.0722888" stop-color="#E70F0D"/>
<stop offset="0.513257" stop-color="#E70F0D"/>
<stop offset="0.927083" stop-color="#E70F0D"/>
<stop offset="1" stop-color="#0A0A0A"/>
</linearGradient>
<linearGradient id="paint14_linear_60_2911" x1="14.4428" y1="29.9711" x2="88.1965" y2="29.9711" gradientUnits="userSpaceOnUse">
<stop offset="0.00454023" stop-color="#0A0A0A"/>
<stop offset="0.0722888" stop-color="#E70F0D"/>
<stop offset="0.513257" stop-color="#E70F0D"/>
<stop offset="0.927083" stop-color="#E70F0D"/>
<stop offset="1" stop-color="#0A0A0A"/>
</linearGradient>
<linearGradient id="paint15_linear_60_2911" x1="13.4205" y1="31.5678" x2="89.4751" y2="31.5678" gradientUnits="userSpaceOnUse">
<stop offset="0.00454023" stop-color="#0A0A0A"/>
<stop offset="0.0722888" stop-color="#E70F0D"/>
<stop offset="0.513257" stop-color="#E70F0D"/>
<stop offset="0.927083" stop-color="#E70F0D"/>
<stop offset="1" stop-color="#0A0A0A"/>
</linearGradient>
<linearGradient id="paint16_linear_60_2911" x1="12.596" y1="33.1635" x2="89.9832" y2="33.1635" gradientUnits="userSpaceOnUse">
<stop offset="0.00454023" stop-color="#0A0A0A"/>
<stop offset="0.0722888" stop-color="#E70F0D"/>
<stop offset="0.513257" stop-color="#E70F0D"/>
<stop offset="0.927083" stop-color="#E70F0D"/>
<stop offset="1" stop-color="#0A0A0A"/>
</linearGradient>
<linearGradient id="paint17_linear_60_2911" x1="11.8379" y1="34.7699" x2="91.0373" y2="34.7699" gradientUnits="userSpaceOnUse">
<stop offset="0.00454023" stop-color="#0A0A0A"/>
<stop offset="0.0722888" stop-color="#E70F0D"/>
<stop offset="0.513257" stop-color="#E70F0D"/>
<stop offset="0.927083" stop-color="#E70F0D"/>
<stop offset="1" stop-color="#0A0A0A"/>
</linearGradient>
<linearGradient id="paint18_linear_60_2911" x1="10.8326" y1="36.3666" x2="91.8089" y2="36.3666" gradientUnits="userSpaceOnUse">
<stop offset="0.00454023" stop-color="#0A0A0A"/>
<stop offset="0.0722888" stop-color="#E70F0D"/>
<stop offset="0.513257" stop-color="#E70F0D"/>
<stop offset="0.927083" stop-color="#E70F0D"/>
<stop offset="1" stop-color="#0A0A0A"/>
</linearGradient>
<linearGradient id="paint19_linear_60_2911" x1="9.73333" y1="39.5599" x2="92.744" y2="39.5599" gradientUnits="userSpaceOnUse">
<stop offset="0.00454023" stop-color="#0A0A0A"/>
<stop offset="0.0722888" stop-color="#E70F0D"/>
<stop offset="0.513257" stop-color="#E70F0D"/>
<stop offset="0.927083" stop-color="#E70F0D"/>
<stop offset="1" stop-color="#0A0A0A"/>
</linearGradient>
<linearGradient id="paint20_linear_60_2911" x1="9.22554" y1="41.1566" x2="93.249" y2="41.1566" gradientUnits="userSpaceOnUse">
<stop offset="0.00454023" stop-color="#0A0A0A"/>
<stop offset="0.0722888" stop-color="#E70F0D"/>
<stop offset="0.513257" stop-color="#E70F0D"/>
<stop offset="0.927083" stop-color="#E70F0D"/>
<stop offset="1" stop-color="#0A0A0A"/>
</linearGradient>
<linearGradient id="paint21_linear_60_2911" x1="8.97511" y1="42.7523" x2="93.5937" y2="42.7523" gradientUnits="userSpaceOnUse">
<stop offset="0.00454023" stop-color="#0A0A0A"/>
<stop offset="0.0722888" stop-color="#E70F0D"/>
<stop offset="0.513257" stop-color="#E70F0D"/>
<stop offset="0.927083" stop-color="#E70F0D"/>
<stop offset="1" stop-color="#0A0A0A"/>
</linearGradient>
<linearGradient id="paint22_linear_60_2911" x1="8.48491" y1="44.349" x2="94.6227" y2="44.349" gradientUnits="userSpaceOnUse">
<stop offset="0.00454023" stop-color="#0A0A0A"/>
<stop offset="0.0722888" stop-color="#E70F0D"/>
<stop offset="0.513257" stop-color="#E70F0D"/>
<stop offset="0.927083" stop-color="#E70F0D"/>
<stop offset="1" stop-color="#0A0A0A"/>
</linearGradient>
<linearGradient id="paint23_linear_60_2911" x1="8.31114" y1="45.9555" x2="95.0441" y2="45.9555" gradientUnits="userSpaceOnUse">
<stop offset="0.00454023" stop-color="#0A0A0A"/>
<stop offset="0.0722888" stop-color="#E70F0D"/>
<stop offset="0.513257" stop-color="#E70F0D"/>
<stop offset="0.927083" stop-color="#E70F0D"/>
<stop offset="1" stop-color="#0A0A0A"/>
</linearGradient>
<linearGradient id="paint24_linear_60_2911" x1="7.71964" y1="47.5521" x2="95.0479" y2="47.5521" gradientUnits="userSpaceOnUse">
<stop offset="0.00454023" stop-color="#0A0A0A"/>
<stop offset="0.0722888" stop-color="#E70F0D"/>
<stop offset="0.513257" stop-color="#E70F0D"/>
<stop offset="0.927083" stop-color="#E70F0D"/>
<stop offset="1" stop-color="#0A0A0A"/>
</linearGradient>
<linearGradient id="paint25_linear_60_2911" x1="7.71964" y1="49.1488" x2="95.0479" y2="49.1488" gradientUnits="userSpaceOnUse">
<stop offset="0.00454023" stop-color="#0A0A0A"/>
<stop offset="0.0722888" stop-color="#E70F0D"/>
<stop offset="0.513257" stop-color="#E70F0D"/>
<stop offset="0.927083" stop-color="#E70F0D"/>
<stop offset="1" stop-color="#0A0A0A"/>
</linearGradient>
<linearGradient id="paint26_linear_60_2911" x1="7.71964" y1="50.7445" x2="95.0479" y2="50.7445" gradientUnits="userSpaceOnUse">
<stop offset="0.00454023" stop-color="#0A0A0A"/>
<stop offset="0.0722888" stop-color="#E70F0D"/>
<stop offset="0.513257" stop-color="#E70F0D"/>
<stop offset="0.927083" stop-color="#E70F0D"/>
<stop offset="1" stop-color="#0A0A0A"/>
</linearGradient>
<linearGradient id="paint27_linear_60_2911" x1="7.71964" y1="52.3412" x2="95.0479" y2="52.3412" gradientUnits="userSpaceOnUse">
<stop offset="0.00454023" stop-color="#0A0A0A"/>
<stop offset="0.0722888" stop-color="#E70F0D"/>
<stop offset="0.513257" stop-color="#E70F0D"/>
<stop offset="0.927083" stop-color="#E70F0D"/>
<stop offset="1" stop-color="#0A0A0A"/>
</linearGradient>
<linearGradient id="paint28_linear_60_2911" x1="7.71964" y1="53.9369" x2="95.0479" y2="53.9369" gradientUnits="userSpaceOnUse">
<stop offset="0.00454023" stop-color="#0A0A0A"/>
<stop offset="0.0722888" stop-color="#E70F0D"/>
<stop offset="0.513257" stop-color="#E70F0D"/>
<stop offset="0.927083" stop-color="#E70F0D"/>
<stop offset="1" stop-color="#0A0A0A"/>
</linearGradient>
<linearGradient id="paint29_linear_60_2911" x1="7.71964" y1="55.5433" x2="95.0479" y2="55.5433" gradientUnits="userSpaceOnUse">
<stop offset="0.00454023" stop-color="#0A0A0A"/>
<stop offset="0.0722888" stop-color="#E70F0D"/>
<stop offset="0.513257" stop-color="#E70F0D"/>
<stop offset="0.927083" stop-color="#E70F0D"/>
<stop offset="1" stop-color="#0A0A0A"/>
</linearGradient>
<linearGradient id="paint30_linear_60_2911" x1="7.71964" y1="57.14" x2="95.0479" y2="57.14" gradientUnits="userSpaceOnUse">
<stop offset="0.00454023" stop-color="#0A0A0A"/>
<stop offset="0.0722888" stop-color="#E70F0D"/>
<stop offset="0.513257" stop-color="#E70F0D"/>
<stop offset="0.927083" stop-color="#E70F0D"/>
<stop offset="1" stop-color="#0A0A0A"/>
</linearGradient>
<linearGradient id="paint31_linear_60_2911" x1="7.71964" y1="58.7367" x2="95.0479" y2="58.7367" gradientUnits="userSpaceOnUse">
<stop offset="0.00454023" stop-color="#0A0A0A"/>
<stop offset="0.0722888" stop-color="#E70F0D"/>
<stop offset="0.513257" stop-color="#E70F0D"/>
<stop offset="0.927083" stop-color="#E70F0D"/>
<stop offset="1" stop-color="#0A0A0A"/>
</linearGradient>
<linearGradient id="paint32_linear_60_2911" x1="8.22085" y1="60.3324" x2="95.0427" y2="60.3324" gradientUnits="userSpaceOnUse">
<stop offset="0.00454023" stop-color="#0A0A0A"/>
<stop offset="0.0722888" stop-color="#E70F0D"/>
<stop offset="0.513257" stop-color="#E70F0D"/>
<stop offset="0.927083" stop-color="#E70F0D"/>
<stop offset="1" stop-color="#0A0A0A"/>
</linearGradient>
<linearGradient id="paint33_linear_60_2911" x1="8.56144" y1="61.9281" x2="94.4505" y2="61.9281" gradientUnits="userSpaceOnUse">
<stop offset="0.00454023" stop-color="#0A0A0A"/>
<stop offset="0.0722888" stop-color="#E70F0D"/>
<stop offset="0.513257" stop-color="#E70F0D"/>
<stop offset="0.927083" stop-color="#E70F0D"/>
<stop offset="1" stop-color="#0A0A0A"/>
</linearGradient>
<linearGradient id="paint34_linear_60_2911" x1="8.89537" y1="63.5258" x2="94.1892" y2="63.5258" gradientUnits="userSpaceOnUse">
<stop offset="0.00454023" stop-color="#0A0A0A"/>
<stop offset="0.0722888" stop-color="#E70F0D"/>
<stop offset="0.513257" stop-color="#E70F0D"/>
<stop offset="0.927083" stop-color="#E70F0D"/>
<stop offset="1" stop-color="#0A0A0A"/>
</linearGradient>
<linearGradient id="paint35_linear_60_2911" x1="9.22559" y1="65.1224" x2="93.3378" y2="65.1224" gradientUnits="userSpaceOnUse">
<stop offset="0.00454023" stop-color="#0A0A0A"/>
<stop offset="0.0722888" stop-color="#E70F0D"/>
<stop offset="0.513257" stop-color="#E70F0D"/>
<stop offset="0.927083" stop-color="#E70F0D"/>
<stop offset="1" stop-color="#0A0A0A"/>
</linearGradient>
<linearGradient id="paint36_linear_60_2911" x1="9.73337" y1="66.7289" x2="92.824" y2="66.7289" gradientUnits="userSpaceOnUse">
<stop offset="0.00454023" stop-color="#0A0A0A"/>
<stop offset="0.0722888" stop-color="#E70F0D"/>
<stop offset="0.513257" stop-color="#E70F0D"/>
<stop offset="0.927083" stop-color="#E70F0D"/>
<stop offset="1" stop-color="#0A0A0A"/>
</linearGradient>
<linearGradient id="paint37_linear_60_2911" x1="10.2307" y1="68.3236" x2="92.3085" y2="68.3236" gradientUnits="userSpaceOnUse">
<stop offset="0.00454023" stop-color="#0A0A0A"/>
<stop offset="0.0722888" stop-color="#E70F0D"/>
<stop offset="0.513257" stop-color="#E70F0D"/>
<stop offset="0.927083" stop-color="#E70F0D"/>
<stop offset="1" stop-color="#0A0A0A"/>
</linearGradient>
<linearGradient id="paint38_linear_60_2911" x1="10.7384" y1="69.9213" x2="91.7147" y2="69.9213" gradientUnits="userSpaceOnUse">
<stop offset="0.00454023" stop-color="#0A0A0A"/>
<stop offset="0.0722888" stop-color="#E70F0D"/>
<stop offset="0.513257" stop-color="#E70F0D"/>
<stop offset="0.927083" stop-color="#E70F0D"/>
<stop offset="1" stop-color="#0A0A0A"/>
</linearGradient>
<linearGradient id="paint39_linear_60_2911" x1="11.3229" y1="71.518" x2="91.2863" y2="71.518" gradientUnits="userSpaceOnUse">
<stop offset="0.00454023" stop-color="#0A0A0A"/>
<stop offset="0.0722888" stop-color="#E70F0D"/>
<stop offset="0.513257" stop-color="#E70F0D"/>
<stop offset="0.927083" stop-color="#E70F0D"/>
<stop offset="1" stop-color="#0A0A0A"/>
</linearGradient>
<linearGradient id="paint40_linear_60_2911" x1="12.3281" y1="73.1146" x2="90.0884" y2="73.1146" gradientUnits="userSpaceOnUse">
<stop offset="0.00454023" stop-color="#0A0A0A"/>
<stop offset="0.0722888" stop-color="#E70F0D"/>
<stop offset="0.513257" stop-color="#E70F0D"/>
<stop offset="0.927083" stop-color="#E70F0D"/>
<stop offset="1" stop-color="#0A0A0A"/>
</linearGradient>
<linearGradient id="paint41_linear_60_2911" x1="13.2637" y1="74.7113" x2="89.1584" y2="74.7113" gradientUnits="userSpaceOnUse">
<stop offset="0.00454023" stop-color="#0A0A0A"/>
<stop offset="0.0722888" stop-color="#E70F0D"/>
<stop offset="0.513257" stop-color="#E70F0D"/>
<stop offset="0.927083" stop-color="#E70F0D"/>
<stop offset="1" stop-color="#0A0A0A"/>
</linearGradient>
<linearGradient id="paint42_linear_60_2911" x1="14.109" y1="76.3168" x2="88.76" y2="76.3168" gradientUnits="userSpaceOnUse">
<stop offset="0.00454023" stop-color="#0A0A0A"/>
<stop offset="0.0722888" stop-color="#E70F0D"/>
<stop offset="0.513257" stop-color="#E70F0D"/>
<stop offset="0.927083" stop-color="#E70F0D"/>
<stop offset="1" stop-color="#0A0A0A"/>
</linearGradient>
<linearGradient id="paint43_linear_60_2911" x1="15.1141" y1="77.9125" x2="87.2509" y2="77.9125" gradientUnits="userSpaceOnUse">
<stop offset="0.00454023" stop-color="#0A0A0A"/>
<stop offset="0.0722888" stop-color="#E70F0D"/>
<stop offset="0.513257" stop-color="#E70F0D"/>
<stop offset="0.927083" stop-color="#E70F0D"/>
<stop offset="1" stop-color="#0A0A0A"/>
</linearGradient>
<linearGradient id="paint44_linear_60_2911" x1="16.2971" y1="79.5101" x2="87.2523" y2="79.5101" gradientUnits="userSpaceOnUse">
<stop offset="0.00454023" stop-color="#0A0A0A"/>
<stop offset="0.0722888" stop-color="#E70F0D"/>
<stop offset="0.513257" stop-color="#E70F0D"/>
<stop offset="0.927083" stop-color="#E70F0D"/>
<stop offset="1" stop-color="#0A0A0A"/>
</linearGradient>
<linearGradient id="paint45_linear_60_2911" x1="17.4664" y1="81.1078" x2="87.2312" y2="81.1078" gradientUnits="userSpaceOnUse">
<stop offset="0.00454023" stop-color="#0A0A0A"/>
<stop offset="0.0722888" stop-color="#E70F0D"/>
<stop offset="0.513257" stop-color="#E70F0D"/>
<stop offset="0.927083" stop-color="#E70F0D"/>
<stop offset="1" stop-color="#0A0A0A"/>
</linearGradient>
<linearGradient id="paint46_linear_60_2911" x1="18.9725" y1="82.7035" x2="85.8679" y2="82.7035" gradientUnits="userSpaceOnUse">
<stop offset="0.00454023" stop-color="#0A0A0A"/>
<stop offset="0.0722888" stop-color="#E70F0D"/>
<stop offset="0.513257" stop-color="#E70F0D"/>
<stop offset="0.927083" stop-color="#E70F0D"/>
<stop offset="1" stop-color="#0A0A0A"/>
</linearGradient>
<linearGradient id="paint47_linear_60_2911" x1="20.6601" y1="84.3881" x2="85.8676" y2="84.3881" gradientUnits="userSpaceOnUse">
<stop offset="0.00454023" stop-color="#0A0A0A"/>
<stop offset="0.0722888" stop-color="#E70F0D"/>
<stop offset="0.513257" stop-color="#E70F0D"/>
<stop offset="0.927083" stop-color="#E70F0D"/>
<stop offset="1" stop-color="#0A0A0A"/>
</linearGradient>
<linearGradient id="paint48_linear_60_2911" x1="22.877" y1="85.8969" x2="85.8457" y2="85.8969" gradientUnits="userSpaceOnUse">
<stop offset="0.00454023" stop-color="#0A0A0A"/>
<stop offset="0.0722888" stop-color="#E70F0D"/>
<stop offset="0.513257" stop-color="#E70F0D"/>
<stop offset="0.927083" stop-color="#E70F0D"/>
<stop offset="1" stop-color="#0A0A0A"/>
</linearGradient>
<linearGradient id="paint49_linear_60_2911" x1="22.7908" y1="89.3724" x2="87.5362" y2="89.3724" gradientUnits="userSpaceOnUse">
<stop offset="0.00454023" stop-color="#0A0A0A"/>
<stop offset="0.0722888" stop-color="#E70F0D"/>
<stop offset="0.513257" stop-color="#E70F0D"/>
<stop offset="0.927083" stop-color="#E70F0D"/>
<stop offset="1" stop-color="#0A0A0A"/>
</linearGradient>
</defs>
</svg>
